<svg width="1520" height="359" viewBox="0 0 1520 359" fill="none" xmlns="http://www.w3.org/2000/svg">
<mask id="mask0_24_9477" style="mask-type:alpha" maskUnits="userSpaceOnUse" x="0" y="0" width="1520" height="359">
<rect width="1519.65" height="359" rx="16" fill="#C4C4C4"/>
</mask>
<g mask="url(#mask0_24_9477)">
<rect width="1519.65" height="359" rx="16" fill="#00ADB5"/>
<path opacity="0.15" d="M999.799 257.675C838.503 152.172 616.218 275.459 440.053 191.965C348.394 148.524 329.806 109.323 264.032 44.519C221.845 2.95335 217.823 -4.28276 177.782 -34.0123C137.741 -63.7418 65.1289 -98.1194 65.1289 -98.1194V-207.102H1960.87V518.912H1508.5C1508.5 518.912 1266.88 522.339 1151.18 432.367C1080.8 377.645 1082.37 311.683 999.799 257.675Z" fill="white"/>
<path opacity="0.15" d="M1064.93 222.772C903.63 117.269 681.345 267.802 505.18 184.308C413.521 140.866 365.537 -13.0885 338.841 -58.5868C324.213 -83.5173 301.876 -105.955 265.597 -123.406C229.317 -140.858 130.256 -133.022 130.256 -133.022V-242.004H2026V438.422H1601.79C1601.79 438.422 1304.31 447.147 1207.5 384.643C1123.01 330.094 1147.49 276.78 1064.93 222.772Z" fill="white"/>
</g>
</svg>
