<svg width="371" height="286" viewBox="0 0 371 286" fill="none" xmlns="http://www.w3.org/2000/svg">
<path d="M316.935 62.1143H316.875L282.133 76.9194L234.599 97.1762C234.413 97.2541 234.214 97.2948 234.012 97.2958C233.811 97.2969 233.611 97.2582 233.425 97.1822L184.383 76.8771L148.788 62.1384L148.734 62.1143H148.673C148.111 62.1149 147.573 62.3378 147.176 62.7342C146.779 63.1305 146.555 63.6679 146.555 64.2284V156.043C146.555 156.604 146.779 157.141 147.176 157.538C147.573 157.934 148.111 158.157 148.673 158.158H316.935C317.497 158.157 318.035 157.934 318.433 157.538C318.83 157.141 319.053 156.604 319.054 156.043V64.2284C319.053 63.6679 318.83 63.1305 318.433 62.7342C318.035 62.3378 317.497 62.1149 316.935 62.1143Z" fill="white"/>
<path d="M317.087 62.7182C317.025 62.7182 316.965 62.6993 316.914 62.6641L233.219 4.49333C232.965 4.31713 232.662 4.22296 232.352 4.22349C232.042 4.22402 231.74 4.31921 231.486 4.49628L148.394 62.6635C148.328 62.7091 148.247 62.7269 148.168 62.713C148.089 62.699 148.019 62.6544 147.973 62.589C147.927 62.5236 147.909 62.4426 147.922 62.3639C147.936 62.2851 147.981 62.215 148.046 62.1689L231.138 4.00168C231.494 3.75382 231.917 3.62059 232.351 3.61988C232.785 3.61916 233.209 3.75101 233.565 3.9977L317.26 62.1683C317.313 62.205 317.353 62.2577 317.374 62.3186C317.394 62.3794 317.395 62.4453 317.376 62.5067C317.357 62.5681 317.318 62.6216 317.266 62.6597C317.214 62.6977 317.151 62.7182 317.087 62.7182H317.087Z" fill="#3F3D56"/>
<path d="M153.143 64.7804L232.435 6.13257L312.329 68.9533L236.521 113.804L195.363 104.441L153.143 64.7804Z" fill="#E6E6E6"/>
<path d="M198.837 141.506H159.665C159.179 141.507 158.714 141.315 158.37 140.973C158.026 140.631 157.833 140.167 157.832 139.682C157.831 139.198 158.023 138.733 158.366 138.39C158.709 138.047 159.174 137.854 159.659 137.853H198.837C199.323 137.852 199.789 138.044 200.132 138.386C200.476 138.728 200.669 139.192 200.67 139.677C200.671 140.161 200.479 140.626 200.136 140.969C199.793 141.312 199.328 141.505 198.843 141.506H198.837Z" fill="#AAD8D3"/>
<path d="M173.718 133.653H159.664C159.178 133.654 158.713 133.462 158.37 133.12C158.026 132.778 157.833 132.314 157.832 131.829C157.831 131.345 158.023 130.881 158.366 130.538C158.708 130.195 159.173 130.001 159.658 130H173.718C173.958 130 174.196 130.046 174.419 130.138C174.641 130.229 174.843 130.363 175.014 130.533C175.184 130.702 175.319 130.903 175.411 131.125C175.504 131.346 175.552 131.584 175.552 131.824C175.552 132.064 175.505 132.302 175.414 132.523C175.322 132.745 175.187 132.947 175.017 133.117C174.848 133.287 174.646 133.421 174.424 133.513C174.202 133.605 173.964 133.653 173.723 133.653H173.718Z" fill="#AAD8D3"/>
<path d="M233.55 97.4465C233.252 97.4468 232.957 97.3891 232.681 97.2767L183.779 77.0264V13.6395C183.78 13.079 184.003 12.5417 184.4 12.1453C184.798 11.749 185.336 11.526 185.898 11.5254H279.713C280.275 11.526 280.813 11.749 281.21 12.1453C281.607 12.5417 281.831 13.079 281.831 13.6395V77.0706L281.739 77.1099L234.444 97.2668C234.161 97.3856 233.857 97.4467 233.55 97.4465Z" fill="white"/>
<path d="M233.549 97.5972C233.231 97.5976 232.917 97.5362 232.623 97.4164L183.627 77.1272V13.6394C183.628 13.0389 183.867 12.4631 184.292 12.0385C184.718 11.6138 185.295 11.3749 185.897 11.3743H279.712C280.314 11.3749 280.891 11.6138 281.316 12.0385C281.742 12.4631 281.981 13.0389 281.982 13.6394V77.1702L234.503 97.4055C234.201 97.5323 233.876 97.5975 233.549 97.5972ZM184.232 76.7237L232.854 96.8579C233.307 97.0416 233.815 97.0386 234.266 96.8495L281.376 76.7715V13.6394C281.376 13.199 281.2 12.7768 280.888 12.4654C280.576 12.154 280.153 11.9789 279.712 11.9783H185.897C185.455 11.9789 185.032 12.154 184.72 12.4654C184.408 12.7768 184.233 13.199 184.232 13.6394L184.232 76.7237Z" fill="#3F3D56"/>
<path d="M316.482 62.1143H316.422L281.68 76.9194L234.146 97.1762C233.96 97.2541 233.761 97.2948 233.559 97.2958C233.358 97.2969 233.158 97.2582 232.971 97.1822L183.93 76.8771L148.335 62.1384L148.281 62.1143H148.22C147.658 62.1149 147.12 62.3378 146.723 62.7342C146.326 63.1305 146.102 63.6679 146.102 64.2284V156.043C146.102 156.604 146.326 157.141 146.723 157.538C147.12 157.934 147.658 158.157 148.22 158.158H316.482C317.044 158.157 317.582 157.934 317.979 157.538C318.377 157.141 318.6 156.604 318.601 156.043V64.2284C318.6 63.6679 318.377 63.1305 317.979 62.7342C317.582 62.3378 317.044 62.1149 316.482 62.1143ZM317.995 156.043C317.995 156.444 317.836 156.828 317.552 157.111C317.268 157.394 316.883 157.553 316.482 157.554H148.22C147.819 157.553 147.434 157.394 147.15 157.111C146.866 156.828 146.707 156.444 146.707 156.043V64.2284C146.707 63.8379 146.859 63.4627 147.13 63.1813C147.402 62.8998 147.771 62.734 148.162 62.7183L183.93 77.5295L232.739 97.7409C233.267 97.9555 233.859 97.9522 234.385 97.7319L281.68 77.5748L316.543 62.7183C316.933 62.7351 317.302 62.9015 317.572 63.1827C317.843 63.464 317.994 63.8385 317.995 64.2284V156.043Z" fill="#3F3D56"/>
<path d="M225.935 35.2193H192.646C192.005 35.2184 191.39 34.9635 190.936 34.5104C190.483 34.0574 190.229 33.4434 190.229 32.8032C190.229 32.1629 190.483 31.5489 190.936 31.0959C191.39 30.6428 192.005 30.3879 192.646 30.387H225.935C226.577 30.3879 227.192 30.6428 227.645 31.0959C228.098 31.5489 228.353 32.1629 228.353 32.8032C228.353 33.4434 228.098 34.0574 227.645 34.5104C227.192 34.9635 226.577 35.2184 225.935 35.2193Z" fill="#AAD8D3"/>
<path d="M208.687 24.9505H192.648C192.005 24.9505 191.39 24.696 190.936 24.2428C190.482 23.7897 190.227 23.1752 190.227 22.5343C190.227 21.8935 190.482 21.279 190.936 20.8258C191.39 20.3727 192.005 20.1182 192.648 20.1182H208.687C209.329 20.1182 209.945 20.3727 210.399 20.8258C210.853 21.279 211.108 21.8935 211.108 22.5343C211.108 23.1752 210.853 23.7897 210.399 24.2428C209.945 24.696 209.329 24.9505 208.687 24.9505Z" fill="#AAD8D3"/>
<path d="M257.703 59.3812H206.861C206.219 59.3803 205.605 59.1253 205.151 58.6723C204.698 58.2193 204.443 57.6052 204.443 56.965C204.443 56.3248 204.698 55.7108 205.151 55.2577C205.605 54.8047 206.219 54.5497 206.861 54.5488H257.703C258.344 54.5497 258.959 54.8047 259.412 55.2577C259.866 55.7108 260.12 56.3248 260.12 56.965C260.12 57.6052 259.866 58.2193 259.412 58.6723C258.959 59.1253 258.344 59.3803 257.703 59.3812Z" fill="#CCCCCC"/>
<path d="M257.702 70.556H206.86C206.218 70.556 205.603 70.3015 205.149 69.8483C204.695 69.3952 204.439 68.7806 204.439 68.1398C204.439 67.499 204.695 66.8844 205.149 66.4313C205.603 65.9782 206.218 65.7236 206.86 65.7236H257.702C258.344 65.7236 258.96 65.9782 259.414 66.4313C259.868 66.8844 260.123 67.499 260.123 68.1398C260.123 68.7806 259.868 69.3952 259.414 69.8483C258.96 70.3015 258.344 70.556 257.702 70.556Z" fill="#CCCCCC"/>
<path d="M315.544 85.9642C328.259 85.9642 338.565 75.6781 338.565 62.9894C338.565 50.3008 328.259 40.0146 315.544 40.0146C302.83 40.0146 292.523 50.3008 292.523 62.9894C292.523 75.6781 302.83 85.9642 315.544 85.9642Z" fill="#AAD8D3"/>
<path d="M313.351 72.6882L306.461 63.8463L310.468 60.736L313.73 64.9225L324.751 53.3113L328.437 56.796L313.351 72.6882Z" fill="white"/>
<path d="M58.7863 189.561C58.3848 188.972 58.1177 188.301 58.0038 187.597C57.89 186.893 57.9322 186.173 58.1274 185.487C58.3227 184.802 58.6662 184.167 59.1339 183.628C59.6016 183.089 60.1819 182.659 60.8342 182.368L59.337 165.101L67.2709 169.393L67.4763 185.131C67.8934 186.257 67.8822 187.497 67.4448 188.615C67.0073 189.733 66.1741 190.652 65.1029 191.198C64.0318 191.744 62.7971 191.879 61.6329 191.578C60.4687 191.276 59.4559 190.559 58.7863 189.561H58.7863Z" fill="#9F616A"/>
<path d="M60.2904 178.638L60.2259 178.475L51.4728 156.407L50.084 114.575L50.3173 114.558C52.0265 114.436 53.7429 114.656 55.3657 115.206C56.9884 115.755 58.4848 116.623 59.767 117.757C61.0491 118.892 62.0911 120.271 62.8318 121.813C63.5725 123.355 63.9969 125.03 64.0801 126.738L65.3639 149.229L69.003 178.155L60.2904 178.638Z" fill="#E5E5E5"/>
<path d="M4.375 270.872L9.40671 274.056L24.1058 256.201L16.6792 251.502L4.375 270.872Z" fill="#9F616A"/>
<path d="M4.13369 268.42L14.0433 274.69L14.0437 274.69C15.7185 275.75 16.9028 277.431 17.3363 279.362C17.7697 281.293 17.4167 283.317 16.355 284.988L16.2249 285.193L0 274.928L4.13369 268.42Z" fill="#2F2E41"/>
<path d="M51.9482 279.429L57.9062 279.429L60.7404 256.495L51.9473 256.495L51.9482 279.429Z" fill="#9F616A"/>
<path d="M50.4277 277.488L62.1609 277.488H62.1614C64.1445 277.488 66.0463 278.274 67.4485 279.673C68.8508 281.073 69.6386 282.971 69.6387 284.95V285.192L50.4281 285.193L50.4277 277.488Z" fill="#2F2E41"/>
<path d="M35.0898 183.336L49.116 267.532C49.116 267.532 46.3567 274.416 50.4956 275.334C54.6345 276.252 63.832 274.416 63.832 274.416C63.832 274.416 66.5912 267.532 62.4523 266.614L54.6345 178.642L35.0898 183.336Z" fill="#2F2E41"/>
<path d="M43.369 184.838L33.6519 224.206L8.87851 260.106C8.87851 260.106 -0.318962 261.024 4.73965 266.072C9.79826 271.121 12.0976 271.579 12.0976 271.579C12.0976 271.579 19.9155 270.662 19.4556 266.99L49.9128 231.212L64.0633 183.461L43.369 184.838Z" fill="#2F2E41"/>
<path d="M34.8892 188.305L32.5426 174.939C29.0086 171.253 35.6859 162.14 36.4304 161.15L35.9936 155.482C35.6213 155.419 35.2807 155.234 35.0252 154.956C32.833 152.725 32.9803 143.922 32.9876 143.548L30.5684 118.433L36.5874 114.928L51.8089 114.439L59.2424 120.868L66.402 186.513L66.1467 186.527L34.8892 188.305Z" fill="#E5E5E5"/>
<path d="M40.1565 192.992C39.543 192.627 39.0172 192.132 38.6162 191.542C38.2152 190.952 37.9488 190.281 37.8356 189.577C37.7224 188.873 37.7652 188.153 37.9611 187.467C38.157 186.782 38.5011 186.147 38.9692 185.609L30.3066 170.588L39.3143 171.134L46.1594 185.315C47.0139 186.16 47.5281 187.288 47.6047 188.486C47.6813 189.684 47.3149 190.868 46.575 191.815C45.835 192.761 44.773 193.404 43.59 193.621C42.407 193.838 41.1854 193.614 40.1565 192.992H40.1565Z" fill="#9F616A"/>
<path d="M32.4854 178.946L25.0129 161.659L23.7641 126.346C23.7213 125.186 23.998 124.036 24.5641 123.022C25.1302 122.008 25.9639 121.168 26.9748 120.593L35.5953 115.336L37.4551 152.459L43.0178 174.646L32.4854 178.946Z" fill="#E5E5E5"/>
<path d="M45.8965 111.09C51.8034 111.09 56.5919 106.311 56.5919 100.416C56.5919 94.5206 51.8034 89.7417 45.8965 89.7417C39.9896 89.7417 35.2012 94.5206 35.2012 100.416C35.2012 106.311 39.9896 111.09 45.8965 111.09Z" fill="#9F616A"/>
<path d="M49.7633 84.655C38.9919 81.5551 35.9345 90.4648 35.9345 90.4648C30.7425 93.9024 33.9931 98.2124 33.9931 98.2124C32.683 98.5028 35.3025 106.154 36.1759 105.96C36.642 105.857 37.8404 107.285 38.8568 108.639C39.2054 108.638 39.5531 108.672 39.8952 108.738L37.9231 101.457C37.9231 101.457 44.5705 100.441 46.6086 97.2449C48.5585 94.1874 54.9775 93.2221 56.8043 95.2644C56.9123 94.6772 57.1335 94.1165 57.4557 93.6135C57.7052 93.2314 58.0313 92.9051 58.4136 92.6551C56.7984 85.8051 49.7633 84.655 49.7633 84.655Z" fill="#2F2E41"/>
<path opacity="0.2" d="M37.628 138.934L37.0312 160.182L44.4384 175.763L37.628 138.369" fill="black"/>
<path d="M101.467 22.9296C101.31 22.8369 101.13 22.7902 100.947 22.795C100.765 22.7998 100.587 22.8558 100.435 22.9565C100.283 23.0573 100.163 23.1988 100.087 23.3648C100.012 23.5308 99.9855 23.7146 100.01 23.8951L100.76 29.3869C100.771 29.4679 100.765 29.5501 100.744 29.6289C100.721 29.7066 100.681 29.7785 100.629 29.8404L96.4267 34.8085C96.2864 34.9684 96.2039 35.1708 96.1927 35.3831C96.1815 35.5954 96.2422 35.8053 96.3649 35.979L96.3693 35.9854C96.4869 36.161 96.66 36.2923 96.861 36.3584C97.0621 36.4245 97.2795 36.4216 97.4786 36.3501L100.513 35.3222C100.614 35.289 100.722 35.2837 100.825 35.3069C100.928 35.3301 101.023 35.3809 101.1 35.454C101.157 35.5068 101.203 35.5709 101.234 35.6422C101.265 35.7135 101.281 35.7905 101.281 35.8683L101.4 46.6589C101.401 46.8151 101.44 46.9686 101.514 47.1063C101.588 47.2439 101.695 47.3615 101.825 47.4489C101.954 47.5361 102.102 47.591 102.257 47.609C102.412 47.627 102.569 47.6076 102.715 47.5524L125.365 38.9076C125.535 38.8428 125.684 38.7311 125.794 38.5856C125.904 38.44 125.971 38.2663 125.987 38.0846C126.002 37.9029 125.966 37.7205 125.882 37.5584C125.799 37.3963 125.671 37.2611 125.514 37.1682L125.205 36.9854L101.467 22.9296V22.9296ZM100.394 23.8424C100.379 23.734 100.395 23.6237 100.441 23.5241C100.486 23.4246 100.558 23.3397 100.65 23.2794C100.741 23.219 100.848 23.1856 100.957 23.1828C101.067 23.1801 101.175 23.2082 101.269 23.2639L125 37.3156L125.316 37.5025C125.41 37.5585 125.486 37.6397 125.536 37.7368C125.586 37.8339 125.607 37.9431 125.598 38.0518C125.589 38.1605 125.549 38.2645 125.483 38.3518C125.418 38.4391 125.329 38.5063 125.227 38.5457L102.578 47.1905C102.49 47.2238 102.396 47.2354 102.302 47.2245C102.209 47.2136 102.12 47.1804 102.043 47.1277C101.965 47.0751 101.902 47.0046 101.857 46.9222C101.813 46.8398 101.789 46.7479 101.788 46.6544L101.67 35.8639C101.67 35.7571 101.651 35.6511 101.615 35.5506L124.675 38.1947C124.765 38.2059 124.856 38.1854 124.932 38.1368C125.008 38.0881 125.065 38.0143 125.093 37.9282C125.121 37.8421 125.117 37.749 125.083 37.6651C125.05 37.5812 124.987 37.5117 124.908 37.4687C124.888 37.458 124.868 37.4491 124.847 37.4423L101.151 29.5484C101.157 29.4769 101.154 29.405 101.144 29.3341L100.394 23.8424L100.394 23.8424Z" fill="#F1F1F1"/>
<path d="M101.467 22.9296C101.31 22.8369 101.13 22.7902 100.947 22.795C100.765 22.7998 100.587 22.8558 100.435 22.9565C100.283 23.0573 100.163 23.1988 100.087 23.3648C100.012 23.5308 99.9855 23.7146 100.01 23.8951L100.76 29.3869C100.771 29.4679 100.765 29.5501 100.744 29.6289C100.721 29.7066 100.681 29.7785 100.629 29.8404L96.4267 34.8085C96.2864 34.9684 96.2039 35.1708 96.1927 35.3831C96.1815 35.5954 96.2422 35.8053 96.3649 35.979L96.3693 35.9854C96.4869 36.161 96.66 36.2923 96.861 36.3584C97.0621 36.4245 97.2795 36.4216 97.4786 36.3501L100.513 35.3222C100.614 35.289 100.722 35.2837 100.825 35.3069C100.928 35.3301 101.023 35.3809 101.1 35.454C101.157 35.5068 101.203 35.5709 101.234 35.6422C101.265 35.7135 101.281 35.7905 101.281 35.8683L101.4 46.6589C101.401 46.8151 101.44 46.9686 101.514 47.1063C101.588 47.2439 101.695 47.3615 101.825 47.4489C101.954 47.5361 102.102 47.591 102.257 47.609C102.412 47.627 102.569 47.6076 102.715 47.5524L125.365 38.9076C125.535 38.8428 125.684 38.7311 125.794 38.5856C125.904 38.44 125.971 38.2663 125.987 38.0846C126.002 37.9029 125.966 37.7205 125.882 37.5584C125.799 37.3963 125.671 37.2611 125.514 37.1682L125.205 36.9854L101.467 22.9296V22.9296ZM100.394 23.8424C100.379 23.734 100.395 23.6237 100.441 23.5241C100.486 23.4246 100.558 23.3397 100.65 23.2794C100.741 23.219 100.848 23.1856 100.957 23.1828C101.067 23.1801 101.175 23.2082 101.269 23.2639L125 37.3156L125.316 37.5025C125.41 37.5585 125.486 37.6397 125.536 37.7368C125.586 37.8339 125.607 37.9431 125.598 38.0518C125.589 38.1605 125.549 38.2645 125.483 38.3518C125.418 38.4391 125.329 38.5063 125.227 38.5457L102.578 47.1905C102.49 47.2238 102.396 47.2354 102.302 47.2245C102.209 47.2136 102.12 47.1804 102.043 47.1277C101.965 47.0751 101.902 47.0046 101.857 46.9222C101.813 46.8397 101.789 46.7479 101.788 46.6543L101.67 35.8639C101.67 35.7571 101.651 35.6511 101.615 35.5505C101.565 35.4058 101.479 35.2755 101.367 35.1712C101.351 35.1559 101.334 35.1416 101.317 35.1274L101.316 35.1258C101.189 35.021 101.037 34.9503 100.875 34.9206C100.713 34.8908 100.545 34.9029 100.389 34.9558L97.3529 35.9848C97.2332 36.0282 97.1024 36.0299 96.9816 35.9897C96.8608 35.9495 96.7572 35.8698 96.6875 35.7635L96.6853 35.7603C96.6108 35.6565 96.5739 35.5304 96.5807 35.4029C96.5875 35.2754 96.6376 35.1539 96.7228 35.0586L100.925 30.0906C100.97 30.0385 101.009 29.9816 101.041 29.9209L101.042 29.9198C101.074 29.8617 101.098 29.8004 101.116 29.7371C101.135 29.6756 101.146 29.6123 101.151 29.5484C101.157 29.4769 101.154 29.4051 101.144 29.3341L100.394 23.8424V23.8424Z" fill="#E5E5E5"/>
<path d="M101.152 29.5483L124.848 37.4422C124.869 37.449 124.889 37.4579 124.909 37.4686C124.988 37.5116 125.05 37.5811 125.084 37.665C125.118 37.7489 125.121 37.842 125.094 37.9281C125.066 38.0142 125.009 38.088 124.933 38.1367C124.856 38.1853 124.765 38.2058 124.676 38.1946L101.616 35.5504L101.209 35.5042L101.254 35.1198L101.317 35.1257L101.318 35.1273L124.72 37.8087L101.043 29.9197L101.042 29.9208L100.939 29.8855L101.062 29.5181L101.152 29.5483Z" fill="#E5E5E5"/>
<path d="M365.724 0.134923L341.986 14.1908L341.678 14.3736C341.521 14.4664 341.393 14.6016 341.309 14.7638C341.225 14.9259 341.189 15.1083 341.205 15.29C341.22 15.4717 341.287 15.6453 341.397 15.7909C341.507 15.9365 341.656 16.0481 341.827 16.113L364.476 24.7577C364.622 24.8129 364.779 24.8323 364.934 24.8143C365.089 24.7963 365.237 24.7414 365.367 24.6542C365.497 24.5669 365.603 24.4493 365.677 24.3116C365.751 24.174 365.79 24.0204 365.792 23.8642L365.91 13.0736C365.91 12.9958 365.926 12.9189 365.957 12.8476C365.988 12.7763 366.034 12.7121 366.091 12.6593C366.168 12.5863 366.263 12.5354 366.366 12.5122C366.47 12.489 366.577 12.4943 366.678 12.5275L369.713 13.5555C369.912 13.6269 370.129 13.6299 370.33 13.5638C370.531 13.4977 370.704 13.3664 370.822 13.1907L370.826 13.1844C370.949 13.0106 371.01 12.8007 370.999 12.5884C370.987 12.3761 370.905 12.1737 370.765 12.0138L366.563 7.04574C366.51 6.98387 366.471 6.91188 366.447 6.83425C366.426 6.75538 366.421 6.67318 366.431 6.59221L367.181 1.10047C367.206 0.919964 367.179 0.736178 367.104 0.570171C367.029 0.404164 366.908 0.262661 366.756 0.161876C366.604 0.0610906 366.427 0.00510003 366.244 0.000332152C366.062 -0.00443573 365.881 0.0422098 365.724 0.134916V0.134923ZM366.798 1.04773L366.047 6.53944C366.037 6.61038 366.035 6.68225 366.04 6.7537L342.344 14.6476C342.323 14.6544 342.303 14.6633 342.284 14.674C342.204 14.717 342.142 14.7865 342.108 14.8704C342.074 14.9543 342.071 15.0474 342.098 15.1335C342.126 15.2196 342.183 15.2934 342.259 15.3421C342.336 15.3907 342.427 15.4112 342.517 15.4L365.576 12.7559C365.54 12.8564 365.522 12.9624 365.522 13.0692L365.403 23.8597C365.402 23.9532 365.378 24.0451 365.334 24.1275C365.29 24.2099 365.226 24.2804 365.148 24.3331C365.071 24.3857 364.982 24.4189 364.889 24.4298C364.796 24.4407 364.701 24.4291 364.614 24.3958L341.964 15.7511C341.862 15.7117 341.774 15.6445 341.708 15.5571C341.642 15.4698 341.603 15.3658 341.593 15.2571C341.584 15.1484 341.606 15.0392 341.656 14.9421C341.706 14.845 341.782 14.7638 341.876 14.7078L342.191 14.5209L365.922 0.469252C366.016 0.41352 366.124 0.385412 366.234 0.388143C366.343 0.390874 366.45 0.424336 366.541 0.484696C366.633 0.545057 366.705 0.629874 366.751 0.729443C366.796 0.829011 366.812 0.939308 366.798 1.0477V1.04773Z" fill="#F1F1F1"/>
<path d="M365.724 0.134923L341.986 14.1908L341.678 14.3736C341.521 14.4664 341.393 14.6016 341.309 14.7638C341.225 14.9259 341.189 15.1083 341.205 15.29C341.22 15.4717 341.287 15.6453 341.397 15.7909C341.507 15.9365 341.656 16.0481 341.827 16.113L364.476 24.7577C364.622 24.8129 364.779 24.8323 364.934 24.8143C365.089 24.7963 365.237 24.7414 365.367 24.6542C365.497 24.5669 365.603 24.4493 365.677 24.3116C365.751 24.174 365.79 24.0204 365.792 23.8642L365.91 13.0736C365.91 12.9958 365.926 12.9189 365.957 12.8476C365.988 12.7763 366.034 12.7121 366.091 12.6593C366.168 12.5863 366.263 12.5354 366.366 12.5122C366.47 12.489 366.577 12.4943 366.678 12.5275L369.713 13.5555C369.912 13.6269 370.129 13.6299 370.33 13.5638C370.531 13.4977 370.704 13.3664 370.822 13.1907L370.826 13.1844C370.949 13.0106 371.01 12.8007 370.999 12.5884C370.987 12.3761 370.905 12.1737 370.765 12.0138L366.563 7.04574C366.51 6.98387 366.471 6.91188 366.447 6.83425C366.426 6.75538 366.421 6.67318 366.431 6.59221L367.181 1.10047C367.206 0.919964 367.179 0.736178 367.104 0.570171C367.029 0.404164 366.908 0.262661 366.756 0.161876C366.604 0.0610906 366.427 0.00510003 366.244 0.000332152C366.062 -0.00443573 365.881 0.0422098 365.724 0.134916V0.134923ZM366.798 1.04773L366.047 6.53946C366.037 6.61039 366.035 6.68226 366.04 6.75371C366.045 6.81764 366.057 6.88089 366.075 6.94237C366.093 7.00574 366.118 7.06701 366.149 7.12514L366.15 7.12624C366.183 7.18695 366.222 7.24385 366.266 7.29589L370.469 12.2639C370.554 12.3592 370.604 12.4807 370.611 12.6082C370.617 12.7358 370.581 12.8618 370.506 12.9656L370.504 12.9688C370.434 13.0752 370.33 13.1549 370.21 13.195C370.089 13.2352 369.958 13.2335 369.838 13.1901L366.802 12.1611C366.646 12.1082 366.479 12.0961 366.316 12.1259C366.154 12.1557 366.002 12.2263 365.875 12.3311L365.874 12.3327C365.857 12.347 365.84 12.3612 365.825 12.3765C365.712 12.4808 365.627 12.6111 365.576 12.7559C365.54 12.8564 365.522 12.9624 365.522 13.0692L365.403 23.8597C365.402 23.9532 365.378 24.0451 365.334 24.1275C365.29 24.2099 365.226 24.2804 365.148 24.333C365.071 24.3857 364.982 24.4189 364.889 24.4298C364.796 24.4407 364.701 24.4291 364.614 24.3958L341.964 15.7511C341.862 15.7117 341.774 15.6445 341.708 15.5571C341.642 15.4698 341.603 15.3658 341.593 15.2571C341.584 15.1484 341.606 15.0392 341.656 14.9421C341.706 14.845 341.782 14.7638 341.876 14.7078L342.191 14.5209L365.922 0.469259C366.016 0.413527 366.124 0.38542 366.234 0.388151C366.343 0.390882 366.45 0.424343 366.541 0.484704C366.633 0.545064 366.705 0.629881 366.751 0.72945C366.796 0.829019 366.812 0.939316 366.798 1.0477V1.04773Z" fill="#E5E5E5"/>
<path d="M366.13 6.72339L366.253 7.09086L366.151 7.12612L366.149 7.12502L342.473 15.014L365.874 12.3326L365.875 12.331L365.938 12.3251L365.983 12.7095L365.576 12.7558L342.517 15.3999C342.427 15.4111 342.336 15.3906 342.26 15.342C342.183 15.2933 342.126 15.2195 342.099 15.1334C342.071 15.0473 342.074 14.9542 342.108 14.8703C342.142 14.7864 342.204 14.717 342.284 14.6739C342.303 14.6632 342.323 14.6543 342.345 14.6476L366.041 6.75361L366.13 6.72339Z" fill="#E5E5E5"/>
<path d="M162.597 196.529C162.435 196.612 162.299 196.739 162.205 196.896C162.112 197.052 162.065 197.232 162.069 197.414C162.073 197.596 162.128 197.774 162.229 197.926C162.329 198.078 162.47 198.199 162.636 198.274L167.688 200.576C167.762 200.611 167.829 200.66 167.885 200.719C167.938 200.781 167.978 200.852 168.002 200.93L169.964 207.129C170.024 207.333 170.152 207.511 170.326 207.634C170.499 207.757 170.71 207.818 170.922 207.807L170.93 207.807C171.142 207.801 171.345 207.726 171.509 207.591C171.672 207.457 171.786 207.272 171.832 207.066L172.583 203.957C172.609 203.854 172.662 203.761 172.737 203.686C172.812 203.611 172.905 203.558 173.008 203.532C173.084 203.512 173.162 203.508 173.239 203.52C173.316 203.532 173.39 203.559 173.456 203.601L182.658 209.268C182.791 209.35 182.942 209.399 183.098 209.41C183.254 209.421 183.411 209.394 183.554 209.332C183.697 209.269 183.823 209.173 183.921 209.052C184.019 208.931 184.086 208.788 184.118 208.636L188.901 184.91C188.937 184.732 188.922 184.546 188.858 184.376C188.793 184.205 188.682 184.056 188.536 183.946C188.391 183.836 188.217 183.769 188.035 183.753C187.853 183.736 187.67 183.772 187.507 183.855L187.188 184.018L162.597 196.529ZM162.797 197.923C162.697 197.877 162.612 197.804 162.552 197.713C162.492 197.621 162.459 197.515 162.457 197.406C162.454 197.296 162.483 197.189 162.539 197.095C162.595 197.001 162.677 196.925 162.775 196.875L187.357 184.367L187.685 184.201C187.782 184.151 187.892 184.13 188 184.14C188.109 184.15 188.213 184.19 188.3 184.256C188.388 184.322 188.454 184.411 188.493 184.513C188.532 184.615 188.542 184.726 188.521 184.833L183.738 208.558C183.719 208.65 183.678 208.736 183.619 208.808C183.56 208.881 183.485 208.939 183.399 208.976C183.313 209.013 183.219 209.029 183.126 209.022C183.032 209.016 182.942 208.987 182.862 208.937L173.66 203.271C173.569 203.214 173.47 203.173 173.365 203.149L187.928 185.111C187.986 185.041 188.017 184.954 188.017 184.863C188.016 184.773 187.984 184.685 187.926 184.616C187.868 184.547 187.787 184.5 187.698 184.483C187.609 184.467 187.517 184.482 187.438 184.527C187.418 184.537 187.4 184.55 187.383 184.564L168.034 200.333C167.976 200.29 167.914 200.254 167.849 200.225L162.797 197.923Z" fill="#F1F1F1"/>
<path d="M162.597 196.529C162.435 196.612 162.299 196.739 162.205 196.896C162.112 197.052 162.065 197.232 162.069 197.414C162.073 197.596 162.128 197.774 162.229 197.926C162.329 198.078 162.47 198.199 162.636 198.274L167.688 200.576C167.762 200.611 167.829 200.66 167.885 200.719C167.938 200.781 167.978 200.852 168.002 200.93L169.964 207.129C170.024 207.333 170.152 207.511 170.326 207.634C170.499 207.757 170.71 207.818 170.922 207.807L170.93 207.807C171.142 207.801 171.345 207.726 171.509 207.591C171.672 207.457 171.786 207.272 171.832 207.066L172.583 203.957C172.609 203.854 172.662 203.761 172.737 203.686C172.812 203.611 172.905 203.558 173.008 203.532C173.084 203.512 173.162 203.508 173.239 203.52C173.316 203.532 173.39 203.559 173.456 203.601L182.658 209.268C182.791 209.35 182.942 209.399 183.098 209.41C183.254 209.421 183.411 209.394 183.554 209.332C183.697 209.269 183.823 209.173 183.921 209.052C184.019 208.931 184.086 208.788 184.118 208.636L188.901 184.91C188.937 184.732 188.922 184.546 188.858 184.376C188.793 184.205 188.682 184.056 188.536 183.946C188.391 183.836 188.217 183.769 188.035 183.753C187.853 183.736 187.67 183.772 187.507 183.855L187.188 184.018L162.597 196.529ZM162.797 197.923C162.697 197.877 162.612 197.804 162.552 197.713C162.492 197.621 162.459 197.515 162.457 197.406C162.454 197.296 162.483 197.189 162.539 197.095C162.595 197.001 162.677 196.925 162.775 196.875L187.357 184.367L187.685 184.201C187.782 184.151 187.892 184.13 188 184.14C188.109 184.15 188.213 184.19 188.3 184.256C188.388 184.322 188.454 184.411 188.493 184.513C188.532 184.615 188.542 184.726 188.521 184.833L183.738 208.558C183.719 208.65 183.678 208.736 183.619 208.808C183.56 208.881 183.485 208.939 183.399 208.976C183.313 209.013 183.219 209.029 183.126 209.022C183.032 209.016 182.942 208.987 182.862 208.937L173.66 203.271C173.569 203.214 173.47 203.173 173.365 203.149C173.216 203.115 173.06 203.117 172.911 203.156C172.89 203.161 172.869 203.168 172.848 203.174L172.846 203.175C172.689 203.226 172.548 203.316 172.436 203.437C172.324 203.558 172.245 203.706 172.206 203.866L171.455 206.977C171.428 207.101 171.359 207.212 171.261 207.293C171.162 207.373 171.039 207.418 170.912 207.42L170.908 207.42C170.78 207.427 170.654 207.391 170.55 207.317C170.445 207.243 170.369 207.136 170.334 207.013L168.372 200.814C168.352 200.748 168.325 200.685 168.29 200.625L168.29 200.623C168.258 200.566 168.219 200.512 168.175 200.463C168.133 200.415 168.085 200.372 168.034 200.333C167.976 200.29 167.914 200.254 167.849 200.225L162.797 197.923Z" fill="#E5E5E5"/>
<path d="M168.034 200.333L187.384 184.564C187.401 184.55 187.419 184.537 187.438 184.527C187.517 184.482 187.609 184.467 187.699 184.483C187.788 184.5 187.868 184.547 187.926 184.616C187.985 184.685 188.017 184.773 188.017 184.863C188.017 184.954 187.986 185.041 187.929 185.111L173.366 203.149L173.109 203.468L172.808 203.225L172.846 203.174L172.848 203.174L187.625 184.868L168.291 200.623L168.291 200.625L168.206 200.693L167.961 200.393L168.034 200.333Z" fill="#E5E5E5"/>
</svg>
