<svg width="892" height="769" viewBox="0 0 892 769" fill="none" xmlns="http://www.w3.org/2000/svg">
<path d="M418.645 768.139C613.049 768.139 770.645 760.08 770.645 750.139C770.645 740.198 613.049 732.139 418.645 732.139C224.24 732.139 66.6445 740.198 66.6445 750.139C66.6445 760.08 224.24 768.139 418.645 768.139Z" fill="#F2F2F2"/>
<path d="M624.298 195.892H620.299V86.3464C620.299 69.5312 613.619 53.4046 601.729 41.5145C589.839 29.6243 573.712 22.9445 556.897 22.9445H324.81C307.995 22.9444 291.868 29.6242 279.978 41.5143C268.088 53.4045 261.408 69.5309 261.408 86.3462V687.321C261.408 704.136 268.088 720.262 279.978 732.152C291.868 744.043 307.995 750.722 324.81 750.722H556.897C573.712 750.723 589.838 744.043 601.729 732.153C613.619 720.262 620.299 704.136 620.299 687.321V273.868H624.297L624.298 195.892Z" fill="#3F3D56"/>
<path d="M606.804 86.7888V686.879C606.804 699.437 601.815 711.48 592.936 720.36C584.056 729.24 572.012 734.229 559.454 734.229H326.254C313.696 734.229 301.653 729.24 292.773 720.36C283.893 711.48 278.905 699.437 278.904 686.879V86.7888C278.905 74.2309 283.893 62.1874 292.773 53.3076C301.653 44.4278 313.696 39.4391 326.254 39.4388H354.544C353.154 42.8548 352.625 46.56 353.003 50.2286C353.381 53.8972 354.654 57.4167 356.712 60.4775C358.769 63.5383 361.547 66.0467 364.801 67.7819C368.055 69.5172 371.686 70.4261 375.374 70.4288H508.334C512.022 70.4261 515.653 69.5171 518.907 67.7819C522.162 66.0466 524.94 63.5383 526.997 60.4775C529.054 57.4166 530.328 53.8972 530.706 50.2286C531.084 46.56 530.554 42.8548 529.164 39.4388H559.454C572.012 39.4391 584.056 44.4278 592.936 53.3076C601.815 62.1874 606.804 74.2309 606.804 86.7888Z" fill="white"/>
<path d="M531.678 345.545C530.128 346.355 528.551 347.122 526.948 347.845C525.488 348.505 524.005 349.125 522.498 349.705C521.948 349.915 521.388 350.125 520.828 350.335C516.401 351.941 511.853 353.195 507.228 354.085C504.938 354.535 502.618 354.888 500.268 355.145C498.328 355.365 496.368 355.522 494.388 355.615C492.978 355.685 491.568 355.715 490.148 355.715C484.525 355.717 478.913 355.192 473.388 354.145C471.948 353.885 470.538 353.575 469.128 353.235C462.308 351.6 455.705 349.163 449.458 345.975C448.898 345.695 448.338 345.395 447.778 345.105C446.948 344.665 446.138 344.205 445.328 343.725C445.718 343.185 446.138 342.655 446.568 342.135C451.247 336.336 457.096 331.588 463.733 328.201C470.37 324.814 477.646 322.863 485.088 322.476C492.529 322.09 499.968 323.275 506.921 325.956C513.873 328.637 520.183 332.752 525.438 338.035C527.262 339.865 528.953 341.824 530.498 343.895C530.908 344.435 531.298 344.985 531.678 345.545Z" fill="#00ADB5"/>
<path d="M492.144 301.618C516.395 301.618 536.054 281.959 536.054 257.708C536.054 233.457 516.395 213.798 492.144 213.798C467.893 213.798 448.234 233.457 448.234 257.708C448.234 281.959 467.893 301.618 492.144 301.618Z" fill="#2F2E41"/>
<path d="M503.822 301.68C519.66 293.022 525.48 273.165 516.823 257.328C508.165 241.491 488.308 235.67 472.471 244.328C456.634 252.985 450.813 272.842 459.471 288.68C468.128 304.517 487.985 310.337 503.822 301.68Z" fill="#A0616A"/>
<path d="M522.486 252.448C515.018 257.595 506.154 260.334 497.084 260.298C500.32 262.541 504.003 264.057 507.88 264.739C495.821 267.326 483.358 267.396 471.27 264.945C468.583 264.514 465.991 263.624 463.606 262.313C462.418 261.649 461.383 260.743 460.568 259.653C459.753 258.563 459.176 257.314 458.876 255.986C458.073 251.398 461.648 247.229 465.364 244.419C471.053 240.183 477.612 237.265 484.568 235.875C491.523 234.485 498.7 234.659 505.58 236.383C510.073 237.544 514.573 239.506 517.491 243.114C520.409 246.722 521.274 252.284 518.493 255.999L522.486 252.448Z" fill="#2F2E41"/>
<path d="M490.148 175.715C470.521 175.712 451.43 182.126 435.786 193.981C420.143 205.836 408.804 222.48 403.498 241.377C398.193 260.274 399.211 280.388 406.398 298.652C413.586 316.917 426.548 332.331 443.309 342.545L443.889 342.885C444.369 343.175 444.849 343.455 445.329 343.725C446.139 344.205 446.948 344.665 447.778 345.105C448.338 345.395 448.898 345.695 449.458 345.975C455.705 349.163 462.308 351.6 469.128 353.235C470.539 353.575 471.948 353.885 473.389 354.145C478.914 355.191 484.525 355.717 490.148 355.715C491.568 355.715 492.979 355.685 494.389 355.615C496.369 355.525 498.329 355.368 500.269 355.145C502.619 354.885 504.939 354.531 507.229 354.085C511.854 353.194 516.401 351.941 520.829 350.335C521.389 350.125 521.948 349.915 522.499 349.705C524.008 349.125 525.492 348.505 526.948 347.845C528.548 347.125 530.125 346.358 531.679 345.545C547.246 337.392 560.113 324.897 568.718 309.575C568.758 309.495 568.809 309.415 568.849 309.335C573.44 301.096 576.697 292.182 578.499 282.925C581.028 269.892 580.645 256.461 577.376 243.594C574.108 230.727 568.035 218.742 559.592 208.497C551.149 198.251 540.545 190 528.54 184.332C516.534 178.665 503.424 175.722 490.148 175.715H490.148ZM567.208 308.165C567.128 308.305 567.059 308.445 566.979 308.575C558.545 323.67 545.859 335.953 530.498 343.895C528.968 344.695 527.412 345.445 525.829 346.145C524.518 346.735 523.179 347.295 521.829 347.815C521.258 348.035 520.679 348.255 520.099 348.455C516.273 349.852 512.353 350.975 508.369 351.815C505.412 352.444 502.425 352.915 499.418 353.225C497.568 353.425 495.688 353.565 493.798 353.635C492.588 353.685 491.369 353.715 490.148 353.715C484.706 353.721 479.276 353.216 473.929 352.205C470.676 351.605 467.46 350.817 464.298 349.845C459.482 348.357 454.802 346.46 450.309 344.175C449.789 343.905 449.269 343.635 448.758 343.355C448.028 342.965 447.289 342.565 446.568 342.135C446.028 341.835 445.488 341.515 444.958 341.195C444.648 341.015 444.338 340.825 444.028 340.635C429.333 331.61 417.61 318.469 410.315 302.843C403.02 287.217 400.473 269.793 402.991 252.732C405.508 235.672 412.979 219.725 424.476 206.872C435.974 194.019 450.992 184.824 467.668 180.428C484.344 176.033 501.943 176.63 518.282 182.145C534.622 187.661 548.982 197.852 559.583 211.455C570.183 225.058 576.556 241.473 577.912 258.665C579.267 275.857 575.546 293.069 567.208 308.165H567.208Z" fill="#3F3D56"/>
<path d="M469.907 214.404C469.435 209.436 463.349 206.378 458.589 207.878C453.83 209.379 450.705 214.171 449.761 219.072C449.306 221.135 449.263 223.268 449.635 225.349C450.007 227.429 450.785 229.415 451.926 231.194C454.332 234.656 458.752 236.817 462.876 235.938C467.583 234.935 470.844 230.338 471.777 225.617C472.71 220.895 471.784 216.028 470.859 211.305L469.907 214.404Z" fill="#2F2E41"/>
<path d="M536.89 221.501C536.417 216.533 530.331 213.475 525.572 214.975C520.812 216.476 517.688 221.268 516.743 226.168C516.288 228.232 516.246 230.365 516.617 232.445C516.989 234.526 517.767 236.512 518.908 238.291C521.314 241.753 525.735 243.914 529.858 243.035C534.565 242.032 537.826 237.435 538.76 232.714C539.693 227.992 538.766 223.125 537.841 218.401L536.89 221.501Z" fill="#2F2E41"/>
<path d="M334.584 301.683C333.961 301.683 333.345 301.552 332.776 301.3C332.207 301.048 331.696 300.68 331.277 300.219L281.655 246.086C281.092 245.473 280.408 244.983 279.646 244.648C278.884 244.313 278.061 244.139 277.229 244.138H15.0093C11.0299 244.134 7.21487 242.551 4.40105 239.737C1.58723 236.923 0.00446778 233.108 0 229.129V134.567C0.00446514 130.587 1.58723 126.772 4.40105 123.958C7.21487 121.144 11.0299 119.562 15.0093 119.557H354.734C358.714 119.562 362.529 121.144 365.343 123.958C368.157 126.772 369.739 130.587 369.744 134.567V229.129C369.739 233.108 368.157 236.923 365.343 239.737C362.529 242.551 358.714 244.134 354.734 244.138H345.103C343.511 244.14 341.985 244.773 340.859 245.899C339.733 247.025 339.1 248.551 339.099 250.143V297.176C339.102 298.084 338.83 298.972 338.317 299.722C337.805 300.471 337.076 301.047 336.228 301.372C335.704 301.577 335.147 301.683 334.584 301.683Z" fill="white"/>
<path d="M334.584 301.683C333.961 301.683 333.345 301.552 332.776 301.3C332.207 301.048 331.696 300.68 331.277 300.219L281.655 246.086C281.092 245.473 280.408 244.983 279.646 244.648C278.884 244.313 278.061 244.139 277.229 244.138H15.0093C11.0299 244.134 7.21487 242.551 4.40105 239.737C1.58723 236.923 0.00446778 233.108 0 229.129V134.567C0.00446514 130.587 1.58723 126.772 4.40105 123.958C7.21487 121.144 11.0299 119.562 15.0093 119.557H354.734C358.714 119.562 362.529 121.144 365.343 123.958C368.157 126.772 369.739 130.587 369.744 134.567V229.129C369.739 233.108 368.157 236.923 365.343 239.737C362.529 242.551 358.714 244.134 354.734 244.138H345.103C343.511 244.14 341.985 244.773 340.859 245.899C339.733 247.025 339.1 248.551 339.099 250.143V297.176C339.102 298.084 338.83 298.972 338.317 299.722C337.805 300.471 337.076 301.047 336.228 301.372C335.704 301.577 335.147 301.683 334.584 301.683ZM15.0093 121.557C11.5602 121.561 8.25349 122.933 5.81462 125.372C3.37575 127.811 2.00389 131.117 2 134.567V229.129C2.0039 232.578 3.37577 235.885 5.81464 238.324C8.25351 240.763 11.5602 242.134 15.0093 242.138H277.229C278.338 242.14 279.436 242.371 280.451 242.818C281.467 243.264 282.379 243.917 283.129 244.734L332.751 298.867C333.092 299.239 333.537 299.499 334.028 299.613C334.519 299.728 335.033 299.691 335.503 299.508C335.973 299.326 336.377 299.005 336.661 298.589C336.946 298.173 337.098 297.681 337.099 297.176V250.143C337.101 248.021 337.945 245.986 339.446 244.486C340.946 242.985 342.981 242.141 345.103 242.138H354.734C358.184 242.134 361.49 240.763 363.929 238.324C366.368 235.885 367.74 232.578 367.744 229.129V134.567C367.74 131.117 366.368 127.811 363.929 125.372C361.49 122.933 358.184 121.561 354.734 121.557H15.0093Z" fill="#3F3D56"/>
<path d="M36.8153 161.272C44.0689 161.272 49.9491 155.392 49.9491 148.138C49.9491 140.884 44.0689 135.004 36.8153 135.004C29.5618 135.004 23.6816 140.884 23.6816 148.138C23.6816 155.392 29.5618 161.272 36.8153 161.272Z" fill="#00ADB5"/>
<path d="M339.411 220.811H30.3314C29.4108 220.812 28.4991 220.632 27.6483 220.28C26.7974 219.929 26.0243 219.413 25.3729 218.763C24.7216 218.112 24.2049 217.339 23.8524 216.489C23.4998 215.639 23.3184 214.727 23.3184 213.807C23.3184 212.886 23.4998 211.974 23.8524 211.124C24.2049 210.274 24.7216 209.501 25.3729 208.851C26.0243 208.2 26.7974 207.684 27.6483 207.333C28.4991 206.981 29.4108 206.801 30.3314 206.802H339.411C341.268 206.804 343.047 207.543 344.359 208.856C345.671 210.17 346.408 211.95 346.408 213.807C346.408 215.663 345.671 217.443 344.359 218.757C343.047 220.07 341.268 220.809 339.411 220.811Z" fill="#E6E6E6"/>
<path d="M238.72 191.041H30.3314C29.4108 191.043 28.4991 190.862 27.6483 190.511C26.7974 190.159 26.0243 189.643 25.3729 188.993C24.7216 188.342 24.2049 187.57 23.8524 186.719C23.4998 185.869 23.3184 184.957 23.3184 184.037C23.3184 183.116 23.4998 182.205 23.8524 181.354C24.2049 180.504 24.7216 179.731 25.3729 179.081C26.0243 178.43 26.7974 177.914 27.6483 177.563C28.4991 177.211 29.4108 177.031 30.3314 177.032H238.72C240.577 177.032 242.359 177.77 243.673 179.084C244.986 180.397 245.724 182.179 245.724 184.037C245.724 185.895 244.986 187.676 243.673 188.99C242.359 190.303 240.577 191.041 238.72 191.041Z" fill="#E6E6E6"/>
<path d="M555.066 622.372C554.218 622.047 553.49 621.471 552.977 620.722C552.465 619.972 552.192 619.084 552.196 618.176V571.143C552.194 569.551 551.561 568.025 550.435 566.899C549.31 565.773 547.783 565.14 546.191 565.138H536.56C532.581 565.134 528.766 563.551 525.952 560.737C523.138 557.923 521.555 554.108 521.551 550.129V455.567C521.555 451.587 523.138 447.772 525.952 444.958C528.766 442.144 532.581 440.562 536.56 440.557H876.285C880.265 440.562 884.08 442.144 886.893 444.958C889.707 447.772 891.29 451.587 891.294 455.567V550.129C891.29 554.108 889.707 557.923 886.893 560.737C884.08 563.551 880.265 565.134 876.285 565.138H614.066C613.233 565.139 612.41 565.313 611.648 565.648C610.887 565.983 610.202 566.473 609.639 567.086L560.017 621.219C559.598 621.68 559.088 622.048 558.518 622.3C557.949 622.552 557.333 622.683 556.711 622.683C556.148 622.683 555.59 622.577 555.066 622.372Z" fill="white"/>
<path d="M555.066 622.372C554.218 622.047 553.49 621.471 552.977 620.722C552.465 619.972 552.192 619.084 552.196 618.176V571.143C552.194 569.551 551.561 568.025 550.435 566.899C549.31 565.773 547.783 565.14 546.191 565.138H536.56C532.581 565.134 528.766 563.551 525.952 560.737C523.138 557.923 521.555 554.108 521.551 550.129V455.567C521.555 451.587 523.138 447.772 525.952 444.958C528.766 442.144 532.581 440.562 536.56 440.557H876.285C880.265 440.562 884.08 442.144 886.893 444.958C889.707 447.772 891.29 451.587 891.294 455.567V550.129C891.29 554.108 889.707 557.923 886.893 560.737C884.08 563.551 880.265 565.134 876.285 565.138H614.066C613.233 565.139 612.41 565.313 611.648 565.648C610.887 565.983 610.202 566.473 609.639 567.086L560.017 621.219C559.598 621.68 559.088 622.048 558.518 622.3C557.949 622.552 557.333 622.683 556.711 622.683C556.148 622.683 555.59 622.577 555.066 622.372ZM536.56 442.557C533.111 442.561 529.804 443.933 527.365 446.372C524.926 448.811 523.555 452.117 523.551 455.567V550.129C523.555 553.578 524.926 556.885 527.365 559.324C529.804 561.763 533.111 563.134 536.56 563.138H546.191C548.314 563.141 550.348 563.985 551.849 565.486C553.35 566.986 554.194 569.021 554.196 571.143V618.176C554.196 618.681 554.348 619.173 554.633 619.589C554.918 620.005 555.321 620.326 555.791 620.508C556.261 620.691 556.775 620.728 557.266 620.613C557.757 620.499 558.202 620.239 558.543 619.867L608.165 565.734C608.916 564.917 609.828 564.264 610.843 563.818C611.859 563.371 612.956 563.14 614.066 563.138H876.285C879.734 563.134 883.041 561.763 885.48 559.324C887.919 556.885 889.291 553.578 889.294 550.129V455.567C889.291 452.117 887.919 448.811 885.48 446.372C883.041 443.933 879.734 442.561 876.285 442.557H536.56Z" fill="#3F3D56"/>
<path d="M449.178 651.655C435.246 660.576 419.105 665.44 402.564 665.704C386.023 665.967 369.736 661.618 355.527 653.145C358.027 648.492 361.194 644.23 364.928 640.495C370.689 634.706 377.7 630.315 385.423 627.659C393.146 625.003 401.375 624.153 409.478 625.174C417.581 626.194 425.342 629.059 432.165 633.547C438.988 638.036 444.692 644.028 448.837 651.065C448.947 651.255 449.067 651.455 449.178 651.655Z" fill="#00ADB5"/>
<path d="M398.442 603.834C422.854 603.834 442.643 584.045 442.643 559.633C442.643 535.221 422.854 515.431 398.442 515.431C374.03 515.431 354.24 535.221 354.24 559.633C354.24 584.045 374.03 603.834 398.442 603.834Z" fill="#2F2E41"/>
<path d="M431.333 590.81C440.048 574.867 434.189 554.879 418.247 546.164C402.304 537.449 382.315 543.308 373.6 559.25C364.885 575.193 370.744 595.182 386.687 603.897C402.629 612.612 422.618 606.753 431.333 590.81Z" fill="#FFB8B8"/>
<path d="M367.898 554.338C375.416 559.519 384.339 562.277 393.469 562.24C390.212 564.498 386.505 566.024 382.602 566.711C394.741 569.315 407.287 569.386 419.455 566.918C422.16 566.485 424.769 565.588 427.17 564.269C428.366 563.601 429.408 562.688 430.229 561.591C431.049 560.494 431.629 559.236 431.932 557.9C432.74 553.281 429.141 549.084 425.401 546.256C419.674 541.992 413.071 539.054 406.069 537.655C399.068 536.256 391.843 536.43 384.917 538.166C380.394 539.335 375.864 541.31 372.927 544.942C369.989 548.574 369.119 554.173 371.918 557.913L367.898 554.338Z" fill="#2F2E41"/>
<path d="M401.147 666.715C379.5 666.708 358.581 658.897 342.227 644.713C325.873 630.53 315.181 610.926 312.112 589.497C309.043 568.068 313.803 546.251 325.52 528.048C337.236 509.845 355.122 496.476 375.898 490.395C396.673 484.313 418.945 485.925 438.628 494.936C458.311 503.948 474.085 519.753 483.057 539.454C492.028 559.155 493.596 581.43 487.473 602.194C481.349 622.957 467.945 640.817 449.718 652.496C435.224 661.79 418.365 666.725 401.147 666.715ZM401.147 488.715C383.74 488.713 366.724 493.874 352.249 503.543C337.775 513.213 326.494 526.958 319.832 543.04C313.169 559.122 311.426 576.818 314.821 593.891C318.217 610.963 326.599 626.646 338.908 638.954C351.217 651.263 366.899 659.645 383.972 663.041C401.044 666.436 418.741 664.693 434.822 658.031C450.904 651.368 464.649 640.087 474.319 625.613C483.989 611.139 489.149 594.122 489.147 576.715C489.121 553.384 479.841 531.016 463.344 514.519C446.846 498.021 424.478 488.741 401.147 488.715Z" fill="#3F3D56"/>
<path d="M563.815 481.272C571.069 481.272 576.949 475.392 576.949 468.138C576.949 460.884 571.069 455.004 563.815 455.004C556.562 455.004 550.682 460.884 550.682 468.138C550.682 475.392 556.562 481.272 563.815 481.272Z" fill="#00ADB5"/>
<path d="M866.411 540.811H557.331C556.411 540.812 555.499 540.632 554.648 540.28C553.797 539.929 553.024 539.413 552.373 538.763C551.722 538.112 551.205 537.339 550.852 536.489C550.5 535.639 550.318 534.727 550.318 533.807C550.318 532.886 550.5 531.974 550.852 531.124C551.205 530.274 551.722 529.501 552.373 528.851C553.024 528.2 553.797 527.684 554.648 527.333C555.499 526.981 556.411 526.801 557.331 526.802H866.411C868.269 526.802 870.051 527.54 871.364 528.853C872.678 530.167 873.416 531.949 873.416 533.807C873.416 535.664 872.678 537.446 871.364 538.76C870.051 540.073 868.269 540.811 866.411 540.811Z" fill="#E6E6E6"/>
<path d="M765.72 511.041H557.331C556.411 511.043 555.499 510.862 554.648 510.511C553.797 510.159 553.024 509.643 552.373 508.993C551.722 508.342 551.205 507.57 550.852 506.719C550.5 505.869 550.318 504.957 550.318 504.037C550.318 503.116 550.5 502.205 550.852 501.354C551.205 500.504 551.722 499.731 552.373 499.081C553.024 498.43 553.797 497.914 554.648 497.563C555.499 497.211 556.411 497.031 557.331 497.032H765.72C767.576 497.034 769.355 497.773 770.667 499.087C771.979 500.4 772.716 502.18 772.716 504.037C772.716 505.893 771.979 507.673 770.667 508.987C769.355 510.3 767.576 511.039 765.72 511.041Z" fill="#E6E6E6"/>
<path d="M555.066 622.372C554.218 622.047 553.49 621.471 552.977 620.722C552.465 619.972 552.192 619.084 552.196 618.176V571.143C552.194 569.551 551.561 568.025 550.435 566.899C549.31 565.773 547.783 565.14 546.191 565.138H536.56C532.581 565.134 528.766 563.551 525.952 560.737C523.138 557.923 521.555 554.108 521.551 550.129V455.567C521.555 451.587 523.138 447.772 525.952 444.958C528.766 442.144 532.581 440.562 536.56 440.557H876.285C880.265 440.562 884.08 442.144 886.893 444.958C889.707 447.772 891.29 451.587 891.294 455.567V550.129C891.29 554.108 889.707 557.923 886.893 560.737C884.08 563.551 880.265 565.134 876.285 565.138H614.066C613.233 565.139 612.41 565.313 611.648 565.648C610.887 565.983 610.202 566.473 609.639 567.086L560.017 621.219C559.598 621.68 559.088 622.048 558.518 622.3C557.949 622.552 557.333 622.683 556.711 622.683C556.148 622.683 555.59 622.577 555.066 622.372ZM536.56 442.557C533.111 442.561 529.804 443.933 527.365 446.372C524.926 448.811 523.555 452.117 523.551 455.567V550.129C523.555 553.578 524.926 556.885 527.365 559.324C529.804 561.763 533.111 563.134 536.56 563.138H546.191C548.314 563.141 550.348 563.985 551.849 565.486C553.35 566.986 554.194 569.021 554.196 571.143V618.176C554.196 618.681 554.348 619.173 554.633 619.589C554.918 620.005 555.321 620.326 555.791 620.508C556.261 620.691 556.775 620.728 557.266 620.613C557.757 620.499 558.202 620.239 558.543 619.867L608.165 565.734C608.916 564.917 609.828 564.264 610.843 563.818C611.859 563.371 612.956 563.14 614.066 563.138H876.285C879.734 563.134 883.041 561.763 885.48 559.324C887.919 556.885 889.291 553.578 889.294 550.129V455.567C889.291 452.117 887.919 448.811 885.48 446.372C883.041 443.933 879.734 442.561 876.285 442.557H536.56Z" fill="#3F3D56"/>
<path d="M563.815 481.272C571.069 481.272 576.949 475.392 576.949 468.138C576.949 460.884 571.069 455.004 563.815 455.004C556.562 455.004 550.682 460.884 550.682 468.138C550.682 475.392 556.562 481.272 563.815 481.272Z" fill="#00ADB5"/>
<path d="M866.411 540.811H557.331C556.411 540.812 555.499 540.632 554.648 540.28C553.797 539.929 553.024 539.413 552.373 538.763C551.722 538.112 551.205 537.339 550.852 536.489C550.5 535.639 550.318 534.727 550.318 533.807C550.318 532.886 550.5 531.974 550.852 531.124C551.205 530.274 551.722 529.501 552.373 528.851C553.024 528.2 553.797 527.684 554.648 527.333C555.499 526.981 556.411 526.801 557.331 526.802H866.411C868.269 526.802 870.051 527.54 871.364 528.853C872.678 530.167 873.416 531.949 873.416 533.807C873.416 535.664 872.678 537.446 871.364 538.76C870.051 540.073 868.269 540.811 866.411 540.811Z" fill="#E6E6E6"/>
<path d="M765.72 511.041H557.331C556.411 511.043 555.499 510.862 554.648 510.511C553.797 510.159 553.024 509.643 552.373 508.993C551.722 508.342 551.205 507.57 550.852 506.719C550.5 505.869 550.318 504.957 550.318 504.037C550.318 503.116 550.5 502.205 550.852 501.354C551.205 500.504 551.722 499.731 552.373 499.081C553.024 498.43 553.797 497.914 554.648 497.563C555.499 497.211 556.411 497.031 557.331 497.032H765.72C767.576 497.034 769.355 497.773 770.667 499.087C771.979 500.4 772.716 502.18 772.716 504.037C772.716 505.893 771.979 507.673 770.667 508.987C769.355 510.3 767.576 511.039 765.72 511.041Z" fill="#E6E6E6"/>
<path d="M128.914 575.278C128.612 575.398 128.281 575.424 127.964 575.351C127.648 575.279 127.361 575.112 127.142 574.872L115.731 562.516C115.345 562.099 114.808 561.851 114.239 561.829C113.67 561.806 113.116 562.01 112.697 562.396L110.167 564.732C109.12 565.697 107.734 566.206 106.312 566.15C104.891 566.093 103.549 565.475 102.583 564.431L79.6413 539.589C78.6771 538.543 78.1673 537.156 78.2239 535.735C78.2804 534.313 78.8987 532.971 79.9429 532.005L169.189 449.586C170.235 448.622 171.622 448.112 173.044 448.168C174.465 448.225 175.807 448.843 176.773 449.887L199.715 474.729C200.679 475.776 201.189 477.162 201.132 478.584C201.075 480.005 200.457 481.347 199.413 482.313L130.528 545.929C130.309 546.131 130.135 546.377 130.016 546.649C129.897 546.922 129.837 547.217 129.837 547.514L129.935 573.774C129.936 573.997 129.891 574.217 129.803 574.421C129.715 574.626 129.585 574.81 129.421 574.961C129.273 575.097 129.101 575.205 128.914 575.278Z" fill="white"/>
<path d="M128.914 575.278C128.612 575.398 128.281 575.424 127.964 575.351C127.648 575.279 127.361 575.112 127.142 574.872L115.731 562.516C115.345 562.099 114.808 561.851 114.239 561.829C113.67 561.806 113.116 562.01 112.697 562.396L110.167 564.732C109.12 565.697 107.734 566.206 106.312 566.15C104.891 566.093 103.549 565.475 102.583 564.431L79.6413 539.589C78.6771 538.543 78.1673 537.156 78.2239 535.735C78.2804 534.313 78.8987 532.971 79.9429 532.005L169.189 449.586C170.235 448.622 171.622 448.112 173.044 448.168C174.465 448.225 175.807 448.843 176.773 449.887L199.715 474.729C200.679 475.776 201.189 477.162 201.132 478.584C201.075 480.005 200.457 481.347 199.413 482.313L130.528 545.929C130.309 546.131 130.135 546.377 130.016 546.649C129.897 546.922 129.837 547.217 129.837 547.514L129.935 573.774C129.936 573.997 129.891 574.217 129.803 574.421C129.715 574.626 129.585 574.81 129.421 574.961C129.273 575.097 129.101 575.205 128.914 575.278ZM80.4282 532.53C79.523 533.368 78.9872 534.531 78.9382 535.763C78.8891 536.995 79.331 538.197 80.1667 539.104L103.108 563.946C103.946 564.851 105.108 565.386 106.341 565.436C107.573 565.485 108.775 565.043 109.682 564.207L112.212 561.87C112.77 561.356 113.509 561.084 114.268 561.114C115.026 561.145 115.741 561.474 116.257 562.031L127.667 574.387C127.79 574.519 127.949 574.612 128.125 574.652C128.3 574.692 128.484 574.678 128.652 574.612C128.82 574.547 128.964 574.431 129.065 574.282C129.166 574.133 129.22 573.957 129.219 573.776L129.122 547.517C129.121 547.12 129.202 546.728 129.361 546.364C129.519 546 129.751 545.673 130.042 545.404L198.928 481.788C199.833 480.95 200.369 479.788 200.418 478.555C200.467 477.323 200.025 476.121 199.189 475.214L176.248 450.373C175.41 449.468 174.247 448.932 173.015 448.883C171.783 448.834 170.581 449.275 169.674 450.111L80.4282 532.53Z" fill="#3F3D56"/>
<path d="M190.917 478.318L109.722 553.302C109.48 553.526 109.197 553.7 108.888 553.814C108.579 553.928 108.251 553.98 107.922 553.967C107.593 553.954 107.27 553.877 106.971 553.739C106.672 553.601 106.403 553.405 106.18 553.164C105.956 552.922 105.783 552.638 105.669 552.329C105.556 552.02 105.504 551.692 105.517 551.363C105.53 551.034 105.608 550.711 105.747 550.412C105.885 550.114 106.081 549.845 106.323 549.622L187.518 474.638C188.006 474.187 188.653 473.949 189.317 473.975C189.981 474.002 190.607 474.291 191.058 474.779C191.508 475.267 191.747 475.914 191.72 476.577C191.694 477.241 191.405 477.867 190.917 478.318Z" fill="#E6E6E6"/>
<path d="M157.243 494.926L102.499 545.482C102.257 545.705 101.974 545.879 101.665 545.993C101.356 546.107 101.028 546.159 100.699 546.147C100.37 546.134 100.047 546.056 99.7482 545.918C99.4493 545.78 99.1805 545.585 98.9572 545.343C98.7338 545.101 98.5604 544.818 98.4467 544.509C98.333 544.2 98.2813 543.872 98.2946 543.543C98.3078 543.214 98.3858 542.891 98.5241 542.592C98.6623 542.293 98.858 542.025 99.1001 541.802L153.844 491.246C154.332 490.796 154.979 490.558 155.642 490.585C156.305 490.612 156.931 490.901 157.381 491.388C157.831 491.876 158.07 492.522 158.044 493.186C158.018 493.849 157.73 494.475 157.243 494.926Z" fill="#E6E6E6"/>
<path d="M128.914 575.278C128.612 575.398 128.281 575.424 127.964 575.351C127.648 575.279 127.361 575.112 127.142 574.872L115.731 562.516C115.345 562.099 114.808 561.851 114.239 561.829C113.67 561.806 113.116 562.01 112.697 562.396L110.167 564.732C109.12 565.697 107.734 566.206 106.312 566.15C104.891 566.093 103.549 565.475 102.583 564.431L79.6413 539.589C78.6771 538.543 78.1673 537.156 78.2239 535.735C78.2804 534.313 78.8987 532.971 79.9429 532.005L169.189 449.586C170.235 448.622 171.622 448.112 173.044 448.168C174.465 448.225 175.807 448.843 176.773 449.887L199.715 474.729C200.679 475.776 201.189 477.162 201.132 478.584C201.075 480.005 200.457 481.347 199.413 482.313L130.528 545.929C130.309 546.131 130.135 546.377 130.016 546.649C129.897 546.922 129.837 547.217 129.837 547.514L129.935 573.774C129.936 573.997 129.891 574.217 129.803 574.421C129.715 574.626 129.585 574.81 129.421 574.961C129.273 575.097 129.101 575.205 128.914 575.278ZM80.4282 532.53C79.523 533.368 78.9872 534.531 78.9382 535.763C78.8891 536.995 79.331 538.197 80.1667 539.104L103.108 563.946C103.946 564.851 105.108 565.386 106.341 565.436C107.573 565.485 108.775 565.043 109.682 564.207L112.212 561.87C112.77 561.356 113.509 561.084 114.268 561.114C115.026 561.145 115.741 561.474 116.257 562.031L127.667 574.387C127.79 574.519 127.949 574.612 128.125 574.652C128.3 574.692 128.484 574.678 128.652 574.612C128.82 574.547 128.964 574.431 129.065 574.282C129.166 574.133 129.22 573.957 129.219 573.776L129.122 547.517C129.121 547.12 129.202 546.728 129.361 546.364C129.519 546 129.751 545.673 130.042 545.404L198.928 481.788C199.833 480.95 200.369 479.788 200.418 478.555C200.467 477.323 200.025 476.121 199.189 475.214L176.248 450.373C175.41 449.468 174.247 448.932 173.015 448.883C171.783 448.834 170.581 449.275 169.674 450.111L80.4282 532.53Z" fill="#3F3D56"/>
<path d="M96.981 536.088C98.8866 534.328 99.0047 531.357 97.245 529.452C95.4852 527.546 92.514 527.428 90.6084 529.188C88.7029 530.947 88.5848 533.919 90.3445 535.824C92.1042 537.73 95.0755 537.848 96.981 536.088Z" fill="#00ADB5"/>
<path d="M190.917 478.318L109.722 553.302C109.48 553.526 109.197 553.7 108.888 553.814C108.579 553.928 108.251 553.98 107.922 553.967C107.593 553.954 107.27 553.877 106.971 553.739C106.672 553.601 106.403 553.405 106.18 553.164C105.956 552.922 105.783 552.638 105.669 552.329C105.556 552.02 105.504 551.692 105.517 551.363C105.53 551.034 105.608 550.711 105.747 550.412C105.885 550.114 106.081 549.845 106.323 549.622L187.518 474.638C188.006 474.187 188.653 473.949 189.317 473.975C189.981 474.002 190.607 474.291 191.058 474.779C191.508 475.267 191.747 475.914 191.72 476.577C191.694 477.241 191.405 477.867 190.917 478.318Z" fill="#E6E6E6"/>
<path d="M157.243 494.926L102.499 545.482C102.257 545.705 101.974 545.879 101.665 545.993C101.356 546.107 101.028 546.159 100.699 546.147C100.37 546.134 100.047 546.056 99.7482 545.918C99.4493 545.78 99.1805 545.585 98.9572 545.343C98.7338 545.101 98.5604 544.818 98.4467 544.509C98.333 544.2 98.2813 543.872 98.2946 543.543C98.3078 543.214 98.3858 542.891 98.5241 542.592C98.6623 542.293 98.858 542.025 99.1001 541.802L153.844 491.246C154.332 490.796 154.979 490.558 155.642 490.585C156.305 490.612 156.931 490.901 157.381 491.388C157.831 491.876 158.07 492.522 158.044 493.186C158.018 493.849 157.73 494.475 157.243 494.926Z" fill="#E6E6E6"/>
<path d="M675.245 169.555C675.075 169.45 674.942 169.296 674.862 169.113C674.782 168.93 674.76 168.727 674.798 168.532L676.735 158.383C676.8 158.04 676.726 157.684 676.53 157.395C676.333 157.106 676.03 156.906 675.687 156.84L673.608 156.444C672.75 156.279 671.992 155.78 671.501 155.057C671.009 154.334 670.825 153.446 670.988 152.587L674.882 132.183C675.047 131.325 675.545 130.567 676.268 130.075C676.991 129.584 677.88 129.4 678.739 129.563L752.042 143.552C752.9 143.717 753.658 144.215 754.149 144.938C754.641 145.662 754.825 146.55 754.662 147.409L750.768 167.813C750.603 168.671 750.105 169.429 749.382 169.92C748.659 170.412 747.77 170.596 746.912 170.433L690.332 159.635C690.152 159.601 689.968 159.605 689.789 159.646C689.611 159.687 689.443 159.764 689.297 159.873L676.361 169.51C676.251 169.592 676.126 169.651 675.993 169.682C675.859 169.713 675.721 169.715 675.587 169.69C675.465 169.667 675.349 169.621 675.245 169.555Z" fill="white"/>
<path d="M675.245 169.555C675.075 169.45 674.942 169.296 674.862 169.113C674.782 168.93 674.76 168.727 674.798 168.532L676.735 158.383C676.8 158.04 676.726 157.684 676.53 157.395C676.333 157.106 676.03 156.906 675.687 156.84L673.608 156.444C672.75 156.279 671.992 155.78 671.501 155.057C671.009 154.334 670.825 153.446 670.988 152.587L674.882 132.183C675.047 131.325 675.545 130.567 676.268 130.075C676.991 129.584 677.88 129.4 678.739 129.563L752.042 143.552C752.9 143.717 753.658 144.215 754.149 144.938C754.641 145.662 754.825 146.55 754.662 147.409L750.768 167.813C750.603 168.671 750.105 169.429 749.382 169.92C748.659 170.412 747.77 170.596 746.912 170.433L690.332 159.635C690.152 159.601 689.968 159.605 689.789 159.646C689.611 159.687 689.443 159.764 689.297 159.873L676.361 169.51C676.251 169.592 676.126 169.651 675.993 169.682C675.859 169.713 675.721 169.715 675.587 169.69C675.465 169.667 675.349 169.621 675.245 169.555ZM678.656 129.994C677.912 129.853 677.142 130.013 676.515 130.439C675.889 130.864 675.456 131.521 675.313 132.265L671.419 152.669C671.278 153.414 671.438 154.184 671.864 154.81C672.29 155.437 672.947 155.869 673.691 156.012L675.769 156.409C676.227 156.497 676.631 156.763 676.893 157.148C677.155 157.534 677.253 158.007 677.167 158.466L675.23 168.614C675.209 168.723 675.222 168.835 675.266 168.937C675.31 169.038 675.384 169.124 675.478 169.183C675.572 169.242 675.681 169.271 675.792 169.266C675.903 169.262 676.009 169.224 676.098 169.158L689.034 159.521C689.23 159.375 689.454 159.272 689.691 159.218C689.929 159.163 690.175 159.158 690.414 159.204L746.994 170.002C747.738 170.143 748.508 169.983 749.135 169.557C749.762 169.131 750.194 168.474 750.337 167.73L754.231 147.326C754.372 146.582 754.212 145.812 753.786 145.185C753.36 144.559 752.703 144.126 751.959 143.984L678.656 129.994Z" fill="#3F3D56"/>
<path d="M745.783 164.777L679.093 152.05C678.894 152.012 678.705 151.936 678.535 151.825C678.366 151.714 678.221 151.571 678.107 151.404C677.993 151.236 677.914 151.048 677.873 150.85C677.832 150.652 677.83 150.448 677.868 150.25C677.906 150.051 677.982 149.862 678.093 149.693C678.205 149.524 678.348 149.378 678.515 149.265C678.683 149.151 678.871 149.072 679.069 149.031C679.267 148.99 679.471 148.989 679.669 149.027L746.36 161.755C746.761 161.831 747.115 162.064 747.344 162.401C747.574 162.739 747.66 163.154 747.583 163.554C747.507 163.955 747.274 164.309 746.937 164.539C746.599 164.768 746.184 164.854 745.783 164.777Z" fill="#E6E6E6"/>
<path d="M725.281 154.208L680.317 145.626C680.118 145.589 679.929 145.512 679.76 145.401C679.591 145.29 679.445 145.147 679.332 144.98C679.218 144.813 679.138 144.625 679.097 144.427C679.056 144.229 679.055 144.025 679.092 143.826C679.13 143.627 679.207 143.438 679.318 143.269C679.429 143.1 679.572 142.955 679.74 142.841C679.907 142.728 680.095 142.648 680.293 142.608C680.491 142.567 680.695 142.565 680.894 142.603L725.858 151.185C726.259 151.262 726.612 151.494 726.841 151.832C727.07 152.169 727.156 152.584 727.08 152.984C727.003 153.385 726.771 153.739 726.434 153.968C726.097 154.197 725.682 154.283 725.281 154.208Z" fill="#E6E6E6"/>
<path d="M675.245 169.555C675.075 169.45 674.942 169.296 674.862 169.113C674.782 168.93 674.76 168.727 674.798 168.532L676.735 158.383C676.8 158.04 676.726 157.684 676.53 157.395C676.333 157.106 676.03 156.906 675.687 156.84L673.608 156.444C672.75 156.279 671.992 155.78 671.501 155.057C671.009 154.334 670.825 153.446 670.988 152.587L674.882 132.183C675.047 131.325 675.545 130.567 676.268 130.075C676.991 129.584 677.88 129.4 678.739 129.563L752.042 143.552C752.9 143.717 753.658 144.215 754.149 144.938C754.641 145.662 754.825 146.55 754.662 147.409L750.768 167.813C750.603 168.671 750.105 169.429 749.382 169.92C748.659 170.412 747.77 170.596 746.912 170.433L690.332 159.635C690.152 159.601 689.968 159.605 689.789 159.646C689.611 159.687 689.443 159.764 689.297 159.873L676.361 169.51C676.251 169.592 676.126 169.651 675.993 169.682C675.859 169.713 675.721 169.715 675.587 169.69C675.465 169.667 675.349 169.621 675.245 169.555ZM678.656 129.994C677.912 129.853 677.142 130.013 676.515 130.439C675.889 130.864 675.456 131.521 675.313 132.265L671.419 152.669C671.278 153.414 671.438 154.184 671.864 154.81C672.29 155.437 672.947 155.869 673.691 156.012L675.769 156.409C676.227 156.497 676.631 156.763 676.893 157.148C677.155 157.534 677.253 158.007 677.167 158.466L675.23 168.614C675.209 168.723 675.222 168.835 675.266 168.937C675.31 169.038 675.384 169.124 675.478 169.183C675.572 169.242 675.681 169.271 675.792 169.266C675.903 169.262 676.009 169.224 676.098 169.158L689.034 159.521C689.23 159.375 689.454 159.272 689.691 159.218C689.929 159.163 690.175 159.158 690.414 159.204L746.994 170.002C747.738 170.143 748.508 169.983 749.135 169.557C749.762 169.131 750.194 168.474 750.337 167.73L754.231 147.326C754.372 146.582 754.212 145.812 753.786 145.185C753.36 144.559 752.703 144.126 751.959 143.984L678.656 129.994Z" fill="#3F3D56"/>
<path d="M682.944 139.47C684.509 139.769 686.02 138.742 686.318 137.177C686.617 135.612 685.59 134.101 684.025 133.802C682.46 133.503 680.949 134.53 680.651 136.095C680.352 137.66 681.379 139.171 682.944 139.47Z" fill="#00ADB5"/>
<path d="M745.783 164.777L679.093 152.05C678.894 152.012 678.705 151.936 678.535 151.825C678.366 151.714 678.221 151.571 678.107 151.404C677.993 151.236 677.914 151.048 677.873 150.85C677.832 150.652 677.83 150.448 677.868 150.25C677.906 150.051 677.982 149.862 678.093 149.693C678.205 149.524 678.348 149.378 678.515 149.265C678.683 149.151 678.871 149.072 679.069 149.031C679.267 148.99 679.471 148.989 679.669 149.027L746.36 161.755C746.761 161.831 747.115 162.064 747.344 162.401C747.574 162.739 747.66 163.154 747.583 163.554C747.507 163.955 747.274 164.309 746.937 164.539C746.599 164.768 746.184 164.854 745.783 164.777Z" fill="#E6E6E6"/>
<path d="M725.281 154.208L680.317 145.626C680.118 145.589 679.929 145.512 679.76 145.401C679.591 145.29 679.445 145.147 679.332 144.98C679.218 144.813 679.138 144.625 679.097 144.427C679.056 144.229 679.055 144.025 679.092 143.826C679.13 143.627 679.207 143.438 679.318 143.269C679.429 143.1 679.572 142.955 679.74 142.841C679.907 142.728 680.095 142.648 680.293 142.608C680.491 142.567 680.695 142.565 680.894 142.603L725.858 151.185C726.259 151.262 726.612 151.494 726.841 151.832C727.07 152.169 727.156 152.584 727.08 152.984C727.003 153.385 726.771 153.739 726.434 153.968C726.097 154.197 725.682 154.283 725.281 154.208Z" fill="#E6E6E6"/>
<path d="M554.643 631.325C568.176 631.325 579.147 630.107 579.147 628.605C579.147 627.103 568.176 625.886 554.643 625.886C541.109 625.886 530.139 627.103 530.139 628.605C530.139 630.107 541.109 631.325 554.643 631.325Z" fill="#F2F2F2"/>
<path d="M335.643 311.325C349.176 311.325 360.147 310.107 360.147 308.605C360.147 307.103 349.176 305.886 335.643 305.886C322.109 305.886 311.139 307.103 311.139 308.605C311.139 310.107 322.109 311.325 335.643 311.325Z" fill="#F2F2F2"/>
<path d="M160.25 71.7053C160.029 71.7096 159.812 71.6466 159.628 71.5248C159.444 71.4029 159.302 71.228 159.219 71.0232L154.916 60.4326C154.77 60.0743 154.488 59.7886 154.131 59.6381C153.775 59.4876 153.373 59.4847 153.014 59.63L150.846 60.5113C149.949 60.8744 148.945 60.8671 148.054 60.491C147.163 60.1149 146.458 59.4006 146.093 58.505L137.44 37.2123C137.077 36.3159 137.084 35.312 137.46 34.4209C137.836 33.5299 138.55 32.8244 139.446 32.4592L215.942 1.37339C216.839 1.01028 217.843 1.01757 218.734 1.39369C219.625 1.7698 220.33 2.48403 220.695 3.37965L229.348 24.6724C229.711 25.5688 229.704 26.5727 229.328 27.4637C228.952 28.3548 228.237 29.0603 227.342 29.4254L168.298 53.4193C168.11 53.4956 167.941 53.61 167.8 53.7552C167.659 53.9004 167.55 54.0732 167.479 54.2628L161.259 70.9926C161.207 71.1346 161.126 71.2642 161.02 71.3731C160.915 71.482 160.789 71.5677 160.648 71.6249C160.522 71.6762 160.386 71.7035 160.25 71.7053Z" fill="white"/>
<path d="M160.25 71.7053C160.029 71.7096 159.812 71.6466 159.628 71.5248C159.444 71.4029 159.302 71.228 159.219 71.0232L154.916 60.4326C154.77 60.0743 154.488 59.7886 154.131 59.6381C153.775 59.4876 153.373 59.4847 153.014 59.63L150.846 60.5113C149.949 60.8744 148.945 60.8671 148.054 60.491C147.163 60.1149 146.458 59.4006 146.093 58.505L137.44 37.2123C137.077 36.3159 137.084 35.312 137.46 34.4209C137.836 33.5299 138.55 32.8244 139.446 32.4592L215.942 1.37339C216.839 1.01028 217.843 1.01757 218.734 1.39369C219.625 1.7698 220.33 2.48403 220.695 3.37965L229.348 24.6724C229.711 25.5688 229.704 26.5727 229.328 27.4637C228.952 28.3548 228.237 29.0603 227.342 29.4254L168.298 53.4193C168.11 53.4956 167.941 53.61 167.8 53.7552C167.659 53.9004 167.55 54.0732 167.479 54.2628L161.259 70.9926C161.207 71.1346 161.126 71.2642 161.02 71.3731C160.915 71.482 160.789 71.5677 160.648 71.6249C160.522 71.6762 160.386 71.7035 160.25 71.7053ZM139.629 32.9096C138.853 33.2261 138.234 33.8376 137.908 34.6099C137.582 35.3822 137.575 36.2523 137.89 37.0293L146.543 58.322C146.859 59.0983 147.471 59.7173 148.243 60.0433C149.015 60.3693 149.886 60.3756 150.663 60.0609L152.831 59.1796C153.309 58.986 153.845 58.9899 154.32 59.1905C154.795 59.3911 155.171 59.772 155.366 60.2496L159.67 70.8401C159.716 70.9537 159.795 71.0506 159.898 71.1183C160 71.1859 160.12 71.2211 160.242 71.2193C160.365 71.2174 160.484 71.1786 160.584 71.1079C160.684 71.0372 160.761 70.938 160.803 70.8231L167.024 54.0933C167.118 53.8406 167.263 53.6103 167.451 53.4167C167.639 53.2232 167.865 53.0707 168.115 52.9689L227.159 28.9751C227.935 28.6586 228.554 28.0471 228.88 27.2748C229.206 26.5024 229.212 25.6323 228.898 24.8554L220.245 3.56265C219.928 2.78638 219.317 2.16733 218.545 1.84134C217.772 1.51534 216.902 1.50901 216.125 1.82373L139.629 32.9096Z" fill="#3F3D56"/>
<path d="M222.892 24.851L153.297 53.1328C153.089 53.2172 152.868 53.2601 152.644 53.2588C152.42 53.2575 152.199 53.2121 151.993 53.1252C151.786 53.0383 151.599 52.9116 151.442 52.7524C151.285 52.5932 151.161 52.4045 151.076 52.1972C150.992 51.99 150.95 51.7681 150.951 51.5444C150.953 51.3206 150.998 51.0994 151.086 50.8933C151.173 50.6872 151.3 50.5003 151.459 50.3433C151.618 50.1863 151.807 50.0623 152.015 49.9783L221.61 21.6966C222.029 21.5266 222.497 21.5297 222.913 21.7053C223.329 21.8809 223.659 22.2145 223.829 22.6328C223.999 23.0512 223.995 23.5199 223.82 23.9359C223.644 24.3518 223.311 24.681 222.892 24.851Z" fill="#E6E6E6"/>
<path d="M197.495 27.3614L150.572 46.4295C150.365 46.514 150.143 46.5568 149.919 46.5555C149.695 46.5542 149.474 46.5088 149.268 46.4219C149.062 46.335 148.875 46.2084 148.718 46.0491C148.56 45.8899 148.436 45.7013 148.352 45.494C148.268 45.2867 148.225 45.0648 148.227 44.8411C148.228 44.6174 148.274 44.3961 148.361 44.19C148.448 43.984 148.575 43.7971 148.734 43.6401C148.894 43.4831 149.083 43.359 149.29 43.275L196.213 24.2069C196.631 24.0375 197.099 24.0411 197.515 24.2168C197.931 24.3925 198.259 24.726 198.429 25.144C198.599 25.5619 198.596 26.0303 198.421 26.446C198.246 26.8618 197.913 27.191 197.495 27.3614Z" fill="#E6E6E6"/>
<path d="M160.25 71.7053C160.029 71.7096 159.812 71.6466 159.628 71.5248C159.444 71.4029 159.302 71.228 159.219 71.0232L154.916 60.4326C154.77 60.0743 154.488 59.7886 154.131 59.6381C153.775 59.4876 153.373 59.4847 153.014 59.63L150.846 60.5113C149.949 60.8744 148.945 60.8671 148.054 60.491C147.163 60.1149 146.458 59.4006 146.093 58.505L137.44 37.2123C137.077 36.3159 137.084 35.312 137.46 34.4209C137.836 33.5299 138.55 32.8244 139.446 32.4592L215.942 1.37339C216.839 1.01028 217.843 1.01757 218.734 1.39369C219.625 1.7698 220.33 2.48403 220.695 3.37965L229.348 24.6724C229.711 25.5688 229.704 26.5727 229.328 27.4637C228.952 28.3548 228.237 29.0603 227.342 29.4254L168.298 53.4193C168.11 53.4956 167.941 53.61 167.8 53.7552C167.659 53.9004 167.55 54.0732 167.479 54.2628L161.259 70.9926C161.207 71.1346 161.126 71.2642 161.02 71.3731C160.915 71.482 160.789 71.5677 160.648 71.6249C160.522 71.6762 160.386 71.7035 160.25 71.7053ZM139.629 32.9096C138.853 33.2261 138.234 33.8376 137.908 34.6099C137.582 35.3822 137.575 36.2523 137.89 37.0293L146.543 58.322C146.859 59.0983 147.471 59.7173 148.243 60.0433C149.015 60.3693 149.886 60.3756 150.663 60.0609L152.831 59.1796C153.309 58.986 153.845 58.9899 154.32 59.1905C154.795 59.3911 155.171 59.772 155.366 60.2496L159.67 70.8401C159.716 70.9537 159.795 71.0506 159.898 71.1183C160 71.1859 160.12 71.2211 160.242 71.2193C160.365 71.2174 160.484 71.1786 160.584 71.1079C160.684 71.0372 160.761 70.938 160.803 70.8231L167.024 54.0933C167.118 53.8406 167.263 53.6103 167.451 53.4167C167.639 53.2232 167.865 53.0707 168.115 52.9689L227.159 28.9751C227.935 28.6586 228.554 28.0471 228.88 27.2748C229.206 26.5024 229.212 25.6323 228.898 24.8554L220.245 3.56265C219.928 2.78638 219.317 2.16733 218.545 1.84134C217.772 1.51534 216.902 1.50901 216.125 1.82373L139.629 32.9096Z" fill="#3F3D56"/>
<path d="M149.308 39.1329C150.941 38.4692 151.727 36.6071 151.064 34.9738C150.4 33.3405 148.538 32.5545 146.905 33.2183C145.271 33.882 144.485 35.7441 145.149 37.3774C145.813 39.0107 147.675 39.7966 149.308 39.1329Z" fill="#00ADB5"/>
<path d="M222.892 24.851L153.297 53.1328C153.089 53.2172 152.868 53.2601 152.644 53.2588C152.42 53.2575 152.199 53.2121 151.993 53.1252C151.786 53.0383 151.599 52.9116 151.442 52.7524C151.285 52.5932 151.161 52.4045 151.076 52.1972C150.992 51.99 150.95 51.7681 150.951 51.5444C150.953 51.3206 150.998 51.0994 151.086 50.8933C151.173 50.6872 151.3 50.5003 151.459 50.3433C151.618 50.1863 151.807 50.0623 152.015 49.9783L221.61 21.6966C222.029 21.5266 222.497 21.5297 222.913 21.7053C223.329 21.8809 223.659 22.2145 223.829 22.6328C223.999 23.0512 223.995 23.5199 223.82 23.9359C223.644 24.3518 223.311 24.681 222.892 24.851Z" fill="#E6E6E6"/>
<path d="M197.495 27.3614L150.572 46.4295C150.365 46.514 150.143 46.5568 149.919 46.5555C149.695 46.5542 149.474 46.5088 149.268 46.4219C149.062 46.335 148.875 46.2084 148.718 46.0491C148.56 45.8899 148.436 45.7013 148.352 45.494C148.268 45.2867 148.225 45.0648 148.227 44.8411C148.228 44.6174 148.274 44.3961 148.361 44.19C148.448 43.984 148.575 43.7971 148.734 43.6401C148.894 43.4831 149.083 43.359 149.29 43.275L196.213 24.2069C196.631 24.0375 197.099 24.0411 197.515 24.2168C197.931 24.3925 198.259 24.726 198.429 25.144C198.599 25.5619 198.596 26.0303 198.421 26.446C198.246 26.8618 197.913 27.191 197.495 27.3614Z" fill="#E6E6E6"/>
</svg>
