<svg width="876" height="554" viewBox="0 0 876 554" fill="none" xmlns="http://www.w3.org/2000/svg">
<g clip-path="url(#clip0_24_9729)">
<path d="M354 256H17C12.4929 255.995 8.1718 254.202 4.98477 251.015C1.79775 247.828 0.00505274 243.507 0 239V50C0.00505274 45.4929 1.79775 41.1718 4.98477 37.9848C8.1718 34.7977 12.4929 33.0051 17 33H354C358.507 33.0051 362.828 34.7978 366.015 37.9848C369.202 41.1718 370.995 45.4929 371 50V239C370.995 243.507 369.202 247.828 366.015 251.015C362.828 254.202 358.507 255.995 354 256ZM17 35C13.0231 35.0045 9.21043 36.5863 6.39836 39.3984C3.58629 42.2104 2.0045 46.0231 2 50V239C2.0045 242.977 3.58629 246.79 6.39836 249.602C9.21043 252.414 13.0231 253.995 17 254H354C357.977 253.995 361.79 252.414 364.602 249.602C367.414 246.79 368.996 242.977 369 239V50C368.996 46.0231 367.414 42.2104 364.602 39.3984C361.79 36.5863 357.977 35.0045 354 35H17Z" fill="#E6E6E6"/>
<path d="M268.6 108.313H203.6C202.406 108.313 201.262 108.787 200.418 109.631C199.574 110.475 199.1 111.62 199.1 112.813C199.1 114.006 199.574 115.151 200.418 115.995C201.262 116.839 202.406 117.313 203.6 117.313H268.6C269.793 117.313 270.938 116.839 271.782 115.995C272.625 115.151 273.1 114.006 273.1 112.813C273.1 111.62 272.625 110.475 271.782 109.631C270.938 108.787 269.793 108.313 268.6 108.313Z" fill="#E6E6E6"/>
<path d="M331.959 136.813H202.74C200.729 136.813 199.1 138.833 199.1 141.313C199.1 143.793 200.729 145.813 202.74 145.813H331.959C333.97 145.813 335.6 143.793 335.6 141.313C335.6 138.833 333.97 136.813 331.959 136.813Z" fill="#E6E6E6"/>
<path d="M331.959 166H202.74C200.729 166 199.1 168.02 199.1 170.5C199.1 172.98 200.729 175 202.74 175H331.959C333.97 175 335.6 172.98 335.6 170.5C335.6 168.02 333.97 166 331.959 166Z" fill="#E6E6E6"/>
<path d="M154 214.5H42C39.2162 214.497 36.5473 213.39 34.5789 211.421C32.6104 209.453 31.5032 206.784 31.5 204V79C31.5032 76.2162 32.6104 73.5473 34.5789 71.5789C36.5473 69.6104 39.2162 68.5032 42 68.5H154C156.784 68.5032 159.453 69.6104 161.421 71.5789C163.39 73.5473 164.497 76.2162 164.5 79V204C164.497 206.784 163.39 209.453 161.421 211.421C159.453 213.39 156.784 214.497 154 214.5Z" fill="#E6E6E6"/>
<path d="M362 72C381.882 72 398 55.8823 398 36C398 16.1177 381.882 0 362 0C342.118 0 326 16.1177 326 36C326 55.8823 342.118 72 362 72Z" fill="#E6E6E6"/>
<path d="M832 256H495C490.493 255.995 486.172 254.202 482.985 251.015C479.798 247.828 478.005 243.507 478 239V50C478.005 45.4929 479.798 41.1718 482.985 37.9848C486.172 34.7977 490.493 33.0051 495 33H832C836.507 33.0051 840.828 34.7978 844.015 37.9848C847.202 41.1718 848.995 45.4929 849 50V239C848.995 243.507 847.202 247.828 844.015 251.015C840.828 254.202 836.507 255.995 832 256ZM495 35C491.023 35.0045 487.21 36.5863 484.398 39.3984C481.586 42.2104 480.004 46.0231 480 50V239C480.004 242.977 481.586 246.79 484.398 249.602C487.21 252.414 491.023 253.995 495 254H832C835.977 253.995 839.79 252.414 842.602 249.602C845.414 246.79 846.996 242.977 847 239V50C846.996 46.0231 845.414 42.2104 842.602 39.3984C839.79 36.5863 835.977 35.0045 832 35H495Z" fill="#3F3D56"/>
<path d="M746.6 108.313H681.6C680.406 108.313 679.262 108.787 678.418 109.631C677.574 110.475 677.1 111.62 677.1 112.813C677.1 114.006 677.574 115.151 678.418 115.995C679.262 116.839 680.406 117.313 681.6 117.313H746.6C747.793 117.313 748.938 116.839 749.782 115.995C750.625 115.151 751.1 114.006 751.1 112.813C751.1 111.62 750.625 110.475 749.782 109.631C748.938 108.787 747.793 108.313 746.6 108.313Z" fill="#3F3D56"/>
<path d="M809.959 136.813H680.74C678.729 136.813 677.1 138.833 677.1 141.313C677.1 143.793 678.729 145.813 680.74 145.813H809.959C811.97 145.813 813.6 143.793 813.6 141.313C813.6 138.833 811.97 136.813 809.959 136.813Z" fill="#3F3D56"/>
<path d="M809.959 166H680.74C678.729 166 677.1 168.02 677.1 170.5C677.1 172.98 678.729 175 680.74 175H809.959C811.97 175 813.6 172.98 813.6 170.5C813.6 168.02 811.97 166 809.959 166Z" fill="#3F3D56"/>
<path d="M632 214.5H520C517.216 214.497 514.547 213.39 512.579 211.421C510.61 209.453 509.503 206.784 509.5 204V79C509.503 76.2162 510.61 73.5473 512.579 71.5789C514.547 69.6104 517.216 68.5032 520 68.5H632C634.784 68.5032 637.453 69.6104 639.421 71.5789C641.39 73.5473 642.497 76.2162 642.5 79V204C642.497 206.784 641.39 209.453 639.421 211.421C637.453 213.39 634.784 214.497 632 214.5Z" fill="#00ADB5"/>
<path d="M840 72C859.882 72 876 55.8823 876 36C876 16.1177 859.882 0 840 0C820.118 0 804 16.1177 804 36C804 55.8823 820.118 72 840 72Z" fill="#00ADB5"/>
<path d="M837.977 50.5733C836.995 50.5751 836.04 50.2577 835.254 49.6689L835.206 49.6323L824.952 41.7819C824.476 41.4185 824.076 40.9648 823.775 40.4468C823.475 39.9287 823.279 39.3564 823.2 38.7627C823.121 38.169 823.16 37.5655 823.314 36.9867C823.468 36.4079 823.735 35.8653 824.1 35.3899C824.464 34.9144 824.918 34.5154 825.437 34.2158C825.956 33.9162 826.528 33.7219 827.122 33.6439C827.716 33.5658 828.32 33.6057 828.898 33.7612C829.476 33.9166 830.018 34.1847 830.493 34.5499L837.135 39.6425L852.829 19.1742C853.193 18.6994 853.647 18.301 854.165 18.0017C854.683 17.7024 855.255 17.5081 855.848 17.4298C856.441 17.3515 857.044 17.3908 857.622 17.5454C858.2 17.7001 858.742 17.9671 859.216 18.3311L859.119 18.4636L859.219 18.333C860.176 19.069 860.803 20.1548 860.961 21.3521C861.119 22.5495 860.796 23.7606 860.062 24.7199L841.601 48.7955C841.174 49.3503 840.625 49.7993 839.997 50.1076C839.368 50.4159 838.677 50.5753 837.977 50.5733Z" fill="white"/>
<path d="M354 554H17C12.4929 553.995 8.1718 552.202 4.98477 549.015C1.79775 545.828 0.00505274 541.507 0 537V348C0.00505274 343.493 1.79775 339.172 4.98477 335.985C8.1718 332.798 12.4929 331.005 17 331H354C358.507 331.005 362.828 332.798 366.015 335.985C369.202 339.172 370.995 343.493 371 348V537C370.995 541.507 369.202 545.828 366.015 549.015C362.828 552.202 358.507 553.995 354 554ZM17 333C13.0231 333.004 9.21043 334.586 6.39836 337.398C3.58629 340.21 2.0045 344.023 2 348V537C2.0045 540.977 3.58629 544.79 6.39836 547.602C9.21043 550.414 13.0231 551.995 17 552H354C357.977 551.995 361.79 550.414 364.602 547.602C367.414 544.79 368.996 540.977 369 537V348C368.996 344.023 367.414 340.21 364.602 337.398C361.79 334.586 357.977 333.004 354 333H17Z" fill="#3F3D56"/>
<path d="M268.6 406.313H203.6C202.406 406.313 201.262 406.787 200.418 407.631C199.574 408.475 199.1 409.62 199.1 410.813C199.1 412.006 199.574 413.151 200.418 413.995C201.262 414.839 202.406 415.313 203.6 415.313H268.6C269.793 415.313 270.938 414.839 271.782 413.995C272.625 413.151 273.1 412.006 273.1 410.813C273.1 409.62 272.625 408.475 271.782 407.631C270.938 406.787 269.793 406.313 268.6 406.313Z" fill="#3F3D56"/>
<path d="M331.959 434.813H202.74C200.729 434.813 199.1 436.833 199.1 439.313C199.1 441.793 200.729 443.813 202.74 443.813H331.959C333.97 443.813 335.6 441.793 335.6 439.313C335.6 436.833 333.97 434.813 331.959 434.813Z" fill="#3F3D56"/>
<path d="M331.959 464H202.74C200.729 464 199.1 466.02 199.1 468.5C199.1 470.98 200.729 473 202.74 473H331.959C333.97 473 335.6 470.98 335.6 468.5C335.6 466.02 333.97 464 331.959 464Z" fill="#3F3D56"/>
<path d="M154 512.5H42C39.2162 512.497 36.5473 511.39 34.5789 509.421C32.6104 507.453 31.5032 504.784 31.5 502V377C31.5032 374.216 32.6104 371.547 34.5789 369.579C36.5473 367.61 39.2162 366.503 42 366.5H154C156.784 366.503 159.453 367.61 161.421 369.579C163.39 371.547 164.497 374.216 164.5 377V502C164.497 504.784 163.39 507.453 161.421 509.421C159.453 511.39 156.784 512.497 154 512.5Z" fill="#00ADB5"/>
<path d="M362 370C381.882 370 398 353.882 398 334C398 314.118 381.882 298 362 298C342.118 298 326 314.118 326 334C326 353.882 342.118 370 362 370Z" fill="#00ADB5"/>
<path d="M359.977 348.573C358.995 348.575 358.04 348.258 357.254 347.669L357.206 347.632L346.952 339.782C346.476 339.419 346.076 338.965 345.775 338.447C345.475 337.929 345.279 337.356 345.2 336.763C345.121 336.169 345.16 335.565 345.314 334.987C345.468 334.408 345.735 333.865 346.1 333.39C346.464 332.914 346.918 332.515 347.437 332.216C347.956 331.916 348.528 331.722 349.122 331.644C349.716 331.566 350.32 331.606 350.898 331.761C351.476 331.917 352.019 332.185 352.493 332.55L359.135 337.642L374.83 317.174C375.194 316.699 375.647 316.301 376.165 316.002C376.683 315.702 377.255 315.508 377.848 315.43C378.441 315.352 379.044 315.391 379.622 315.545C380.2 315.7 380.742 315.967 381.216 316.331L381.119 316.464L381.219 316.333C382.177 317.069 382.803 318.155 382.961 319.352C383.119 320.549 382.796 321.761 382.062 322.72L363.601 346.796C363.174 347.35 362.625 347.799 361.997 348.108C361.368 348.416 360.677 348.575 359.977 348.573Z" fill="white"/>
<path d="M832 554H495C490.493 553.995 486.172 552.202 482.985 549.015C479.798 545.828 478.005 541.507 478 537V348C478.005 343.493 479.798 339.172 482.985 335.985C486.172 332.798 490.493 331.005 495 331H832C836.507 331.005 840.828 332.798 844.015 335.985C847.202 339.172 848.995 343.493 849 348V537C848.995 541.507 847.202 545.828 844.015 549.015C840.828 552.202 836.507 553.995 832 554ZM495 333C491.023 333.004 487.21 334.586 484.398 337.398C481.586 340.21 480.004 344.023 480 348V537C480.004 540.977 481.586 544.79 484.398 547.602C487.21 550.414 491.023 551.995 495 552H832C835.977 551.995 839.79 550.414 842.602 547.602C845.414 544.79 846.996 540.977 847 537V348C846.996 344.023 845.414 340.21 842.602 337.398C839.79 334.586 835.977 333.004 832 333H495Z" fill="#3F3D56"/>
<path d="M746.6 406.313H681.6C680.406 406.313 679.262 406.787 678.418 407.631C677.574 408.475 677.1 409.62 677.1 410.813C677.1 412.006 677.574 413.151 678.418 413.995C679.262 414.839 680.406 415.313 681.6 415.313H746.6C747.793 415.313 748.938 414.839 749.782 413.995C750.625 413.151 751.1 412.006 751.1 410.813C751.1 409.62 750.625 408.475 749.782 407.631C748.938 406.787 747.793 406.313 746.6 406.313Z" fill="#3F3D56"/>
<path d="M809.959 434.813H680.74C678.729 434.813 677.1 436.833 677.1 439.313C677.1 441.793 678.729 443.813 680.74 443.813H809.959C811.97 443.813 813.6 441.793 813.6 439.313C813.6 436.833 811.97 434.813 809.959 434.813Z" fill="#3F3D56"/>
<path d="M809.959 464H680.74C678.729 464 677.1 466.02 677.1 468.5C677.1 470.98 678.729 473 680.74 473H809.959C811.97 473 813.6 470.98 813.6 468.5C813.6 466.02 811.97 464 809.959 464Z" fill="#3F3D56"/>
<path d="M632 512.5H520C517.216 512.497 514.547 511.39 512.579 509.421C510.61 507.453 509.503 504.784 509.5 502V377C509.503 374.216 510.61 371.547 512.579 369.579C514.547 367.61 517.216 366.503 520 366.5H632C634.784 366.503 637.453 367.61 639.421 369.579C641.39 371.547 642.497 374.216 642.5 377V502C642.497 504.784 641.39 507.453 639.421 509.421C637.453 511.39 634.784 512.497 632 512.5Z" fill="#00ADB5"/>
<path d="M840 370C859.882 370 876 353.882 876 334C876 314.118 859.882 298 840 298C820.118 298 804 314.118 804 334C804 353.882 820.118 370 840 370Z" fill="#00ADB5"/>
<path d="M837.977 348.573C836.995 348.575 836.04 348.258 835.254 347.669L835.206 347.632L824.952 339.782C824.476 339.419 824.076 338.965 823.775 338.447C823.475 337.929 823.279 337.356 823.2 336.763C823.121 336.169 823.16 335.565 823.314 334.987C823.468 334.408 823.735 333.865 824.1 333.39C824.464 332.914 824.918 332.515 825.437 332.216C825.956 331.916 826.528 331.722 827.122 331.644C827.716 331.566 828.32 331.606 828.898 331.761C829.476 331.917 830.018 332.185 830.493 332.55L837.135 337.642L852.829 317.174C853.193 316.699 853.647 316.301 854.165 316.002C854.683 315.702 855.255 315.508 855.848 315.43C856.441 315.352 857.044 315.391 857.622 315.545C858.2 315.7 858.742 315.967 859.216 316.331L859.119 316.464L859.219 316.333C860.176 317.069 860.803 318.155 860.961 319.352C861.119 320.549 860.796 321.761 860.062 322.72L841.601 346.796C841.174 347.35 840.625 347.799 839.997 348.108C839.368 348.416 838.677 348.575 837.977 348.573Z" fill="white"/>
<path d="M579.703 189.663C577.181 189.593 574.041 189.504 571.625 187.739C570.905 187.191 570.313 186.493 569.891 185.693C569.47 184.892 569.228 184.01 569.183 183.106C569.14 182.464 569.245 181.821 569.491 181.226C569.738 180.632 570.118 180.102 570.603 179.679C571.323 179.141 572.167 178.792 573.056 178.664C573.946 178.536 574.854 178.633 575.697 178.946L573.638 163.898L575.149 163.691L577.57 181.381L576.308 180.802C574.845 180.131 572.836 179.79 571.587 180.844C571.281 181.12 571.042 181.463 570.89 181.845C570.737 182.228 570.675 182.641 570.708 183.052C570.745 183.725 570.926 184.381 571.24 184.977C571.553 185.573 571.991 186.095 572.525 186.507C574.405 187.881 576.907 188.058 579.746 188.138L579.703 189.663Z" fill="white"/>
<path d="M566.162 165.196H557.945V166.721H566.162V165.196Z" fill="white"/>
<path d="M592.1 165.196H583.883V166.721H592.1V165.196Z" fill="white"/>
<path d="M543.671 144.128C537.054 143.374 531.929 137.034 531.366 130.601C530.697 122.948 535.153 115.68 541.268 111.385C547.662 106.894 555.629 105.019 563.337 104.606C578.373 103.858 593.15 108.728 604.795 118.271C610.571 123.068 615.965 129.179 618.009 136.559C619.785 142.969 618.34 150.231 613.185 154.72C611.909 155.82 610.42 156.644 608.81 157.14C607.201 157.636 605.506 157.792 603.832 157.6C599.832 157.184 596.141 155.081 592.946 152.758C586.732 148.24 581.63 141.945 574.058 139.584C568.507 137.852 561.302 139.376 557.91 144.397C557.14 145.546 556.641 146.855 556.451 148.225C556.381 148.517 556.424 148.825 556.572 149.087C556.721 149.348 556.963 149.543 557.25 149.633C557.542 149.711 557.854 149.672 558.118 149.522C558.381 149.372 558.575 149.125 558.657 148.833C559.548 142.51 567.323 140.15 572.779 141.595C580.735 143.7 586.075 150.799 592.602 155.309C595.98 157.828 599.961 159.417 604.145 159.917C607.774 160.201 611.375 159.095 614.217 156.822C619.793 152.419 621.926 144.846 620.693 138.028C619.265 130.133 613.951 123.366 608.12 118.127C596.299 107.618 580.953 101.948 565.139 102.249C557.073 102.434 548.657 104.099 541.708 108.362C534.968 112.497 529.758 119.416 529.077 127.457C528.478 134.536 532.276 141.939 538.795 145.04C540.332 145.768 541.98 146.233 543.671 146.417C545.132 146.583 545.12 144.293 543.671 144.128H543.671Z" fill="white"/>
<path d="M579.703 483.663C577.181 483.593 574.041 483.504 571.625 481.739C570.905 481.191 570.313 480.493 569.891 479.693C569.47 478.892 569.228 478.01 569.183 477.106C569.14 476.464 569.245 475.821 569.491 475.226C569.738 474.632 570.118 474.102 570.603 473.679C571.323 473.141 572.167 472.792 573.056 472.664C573.946 472.536 574.854 472.633 575.697 472.946L573.638 457.898L575.149 457.691L577.57 475.381L576.308 474.802C574.845 474.131 572.836 473.79 571.587 474.844C571.281 475.12 571.042 475.463 570.89 475.845C570.737 476.228 570.675 476.641 570.708 477.052C570.745 477.725 570.926 478.381 571.24 478.977C571.553 479.573 571.991 480.095 572.525 480.507C574.405 481.881 576.907 482.058 579.746 482.138L579.703 483.663Z" fill="white"/>
<path d="M566.162 459.196H557.945V460.721H566.162V459.196Z" fill="white"/>
<path d="M592.1 459.196H583.883V460.721H592.1V459.196Z" fill="white"/>
<path d="M543.671 438.128C537.054 437.373 531.929 431.034 531.366 424.601C530.697 416.948 535.153 409.679 541.268 405.385C547.662 400.894 555.629 399.019 563.337 398.606C578.373 397.858 593.15 402.728 604.795 412.271C610.571 417.068 615.965 423.179 618.009 430.559C619.785 436.969 618.34 444.231 613.185 448.72C611.909 449.82 610.42 450.644 608.81 451.14C607.201 451.635 605.506 451.792 603.832 451.6C599.832 451.184 596.141 449.081 592.946 446.758C586.732 442.24 581.63 435.945 574.058 433.583C568.507 431.852 561.302 433.376 557.91 438.397C557.14 439.546 556.641 440.855 556.451 442.225C556.381 442.517 556.424 442.825 556.572 443.086C556.721 443.348 556.963 443.543 557.25 443.633C557.542 443.711 557.854 443.672 558.118 443.522C558.381 443.372 558.575 443.125 558.657 442.833C559.548 436.51 567.323 434.15 572.779 435.594C580.735 437.7 586.075 444.799 592.602 449.309C595.98 451.828 599.961 453.417 604.145 453.917C607.774 454.201 611.375 453.095 614.217 450.822C619.793 446.419 621.926 438.846 620.693 432.028C619.265 424.133 613.951 417.366 608.12 412.127C596.299 401.618 580.953 395.948 565.139 396.249C557.073 396.434 548.657 398.099 541.708 402.362C534.968 406.497 529.758 413.416 529.077 421.457C528.478 428.536 532.276 435.939 538.795 439.04C540.332 439.768 541.98 440.233 543.671 440.417C545.132 440.583 545.12 438.293 543.671 438.128H543.671Z" fill="white"/>
<path d="M96.7028 483.663C94.1805 483.593 91.0415 483.504 88.6247 481.739C87.9047 481.191 87.3131 480.493 86.8914 479.693C86.4697 478.892 86.2281 478.01 86.1835 477.106C86.1398 476.464 86.2451 475.821 86.4913 475.226C86.7375 474.632 87.1178 474.102 87.6026 473.679C88.323 473.141 89.1666 472.792 90.0565 472.664C90.9463 472.536 91.8541 472.633 92.697 472.946L90.6379 457.898L92.1494 457.691L94.5701 475.381L93.308 474.802C91.8446 474.131 89.8358 473.79 88.5874 474.844C88.281 475.12 88.0422 475.463 87.8897 475.845C87.7372 476.228 87.6751 476.641 87.7082 477.052C87.7451 477.725 87.9265 478.381 88.2399 478.977C88.5534 479.573 88.9915 480.095 89.5246 480.507C91.4054 481.881 93.9075 482.058 96.7456 482.138L96.7028 483.663Z" fill="white"/>
<path d="M83.1623 459.196H74.9453V460.721H83.1623V459.196Z" fill="white"/>
<path d="M109.1 459.196H100.883V460.721H109.1V459.196Z" fill="white"/>
<path d="M60.6708 438.128C54.0538 437.373 48.9291 431.034 48.3663 424.601C47.6966 416.948 52.1534 409.679 58.2678 405.385C64.662 400.894 72.6286 399.019 80.3366 398.606C95.3731 397.858 110.151 402.728 121.795 412.271C127.571 417.068 132.965 423.179 135.009 430.559C136.785 436.969 135.34 444.231 130.185 448.72C128.909 449.82 127.42 450.644 125.81 451.14C124.201 451.635 122.506 451.792 120.832 451.6C116.832 451.184 113.141 449.081 109.946 446.758C103.732 442.24 98.6299 435.945 91.0584 433.583C85.5067 431.852 78.3023 433.376 74.9097 438.397C74.1398 439.546 73.641 440.855 73.4507 442.225C73.3806 442.517 73.4241 442.825 73.5725 443.086C73.7209 443.348 73.963 443.543 74.2499 443.633C74.5424 443.711 74.8543 443.672 75.1178 443.522C75.3813 443.372 75.5752 443.125 75.6574 442.833C76.5481 436.51 84.3233 434.15 89.7794 435.594C97.7347 437.7 103.075 444.799 109.602 449.309C112.98 451.828 116.961 453.417 121.145 453.917C124.774 454.201 128.375 453.095 131.217 450.822C136.793 446.419 138.926 438.846 137.693 432.028C136.265 424.133 130.951 417.366 125.12 412.127C113.299 401.618 97.9526 395.948 82.1387 396.249C74.0728 396.434 65.6569 398.099 58.7082 402.362C51.9679 406.497 46.7583 413.416 46.0774 421.457C45.4781 428.536 49.2757 435.939 55.7947 439.04C57.3318 439.768 58.98 440.233 60.6709 440.417C62.1316 440.583 62.1197 438.293 60.6709 438.128H60.6708Z" fill="white"/>
<path d="M96.7028 191.663C94.1805 191.593 91.0415 191.504 88.6247 189.739C87.9047 189.191 87.3131 188.493 86.8914 187.693C86.4697 186.892 86.2281 186.01 86.1835 185.106C86.1398 184.464 86.2451 183.821 86.4913 183.226C86.7375 182.632 87.1178 182.102 87.6026 181.679C88.323 181.141 89.1666 180.792 90.0565 180.664C90.9463 180.536 91.8541 180.633 92.697 180.946L90.6379 165.898L92.1494 165.691L94.5701 183.381L93.308 182.802C91.8446 182.131 89.8358 181.79 88.5874 182.844C88.281 183.12 88.0422 183.463 87.8897 183.845C87.7372 184.228 87.6751 184.641 87.7082 185.052C87.7451 185.725 87.9265 186.381 88.2399 186.977C88.5534 187.573 88.9915 188.095 89.5246 188.507C91.4054 189.881 93.9075 190.058 96.7456 190.138L96.7028 191.663Z" fill="#3F3D56"/>
<path d="M83.1623 167.196H74.9453V168.721H83.1623V167.196Z" fill="#3F3D56"/>
<path d="M109.1 167.196H100.883V168.721H109.1V167.196Z" fill="#3F3D56"/>
<path d="M60.6708 146.128C54.0538 145.374 48.9291 139.034 48.3663 132.601C47.6966 124.948 52.1534 117.68 58.2678 113.385C64.662 108.894 72.6286 107.019 80.3366 106.606C95.3731 105.858 110.151 110.728 121.795 120.271C127.571 125.068 132.965 131.179 135.009 138.559C136.785 144.969 135.34 152.231 130.185 156.72C128.909 157.82 127.42 158.644 125.81 159.14C124.201 159.636 122.506 159.792 120.832 159.6C116.832 159.184 113.141 157.081 109.946 154.758C103.732 150.24 98.6299 143.945 91.0584 141.584C85.5067 139.852 78.3023 141.376 74.9097 146.397C74.1398 147.546 73.641 148.855 73.4507 150.225C73.3806 150.517 73.4241 150.825 73.5725 151.087C73.7209 151.348 73.963 151.543 74.2499 151.633C74.5424 151.711 74.8543 151.672 75.1178 151.522C75.3813 151.372 75.5752 151.125 75.6574 150.833C76.5481 144.51 84.3233 142.15 89.7794 143.595C97.7347 145.7 103.075 152.799 109.602 157.309C112.98 159.828 116.961 161.417 121.145 161.917C124.774 162.201 128.375 161.095 131.217 158.822C136.793 154.419 138.926 146.846 137.693 140.028C136.265 132.133 130.951 125.366 125.12 120.127C113.299 109.618 97.9526 103.948 82.1387 104.249C74.0728 104.434 65.6569 106.099 58.7082 110.362C51.9679 114.497 46.7583 121.416 46.0774 129.457C45.4781 136.536 49.2757 143.939 55.7947 147.04C57.3318 147.768 58.98 148.233 60.6709 148.417C62.1316 148.583 62.1197 146.293 60.6709 146.128H60.6708Z" fill="#3F3D56"/>
</g>
<defs>
<clipPath id="clip0_24_9729">
<rect width="876" height="554" fill="white"/>
</clipPath>
</defs>
</svg>
