<svg width="70" height="101" viewBox="0 0 70 101" fill="none" xmlns="http://www.w3.org/2000/svg">
<path d="M25.5903 12.6145C29.0937 12.6145 31.9497 9.79651 31.9497 6.29309C31.9497 2.82774 29.0937 0.00976562 25.5903 0.00976562C22.1249 0.00976562 19.3069 2.82774 19.3069 6.29309C19.3069 9.79651 22.1249 12.6145 25.5903 12.6145ZM63.4425 12.6145C66.9459 12.6145 69.802 9.79651 69.802 6.29309C69.802 2.82774 66.9459 0.00976562 63.4425 0.00976562C60.0152 0.00976562 57.1592 2.82774 57.1592 6.29309C57.1592 9.79651 60.0152 12.6145 63.4425 12.6145ZM6.24524 30.7409C9.78675 30.7409 12.5666 27.9229 12.5666 24.4195C12.5666 20.9542 9.78675 18.1362 6.24524 18.1362C2.77989 18.1362 0 20.9542 0 24.4195C0 27.9229 2.77989 30.7409 6.24524 30.7409ZM45.1637 30.7409C48.6672 30.7409 51.5232 27.9229 51.5232 24.4195C51.5232 20.9542 48.6672 18.1362 45.1637 18.1362C41.6984 18.1362 38.8804 20.9542 38.8804 24.4195C38.8804 27.9229 41.6984 30.7409 45.1637 30.7409ZM63.4425 30.7409C66.9459 30.7409 69.802 27.9229 69.802 24.4195C69.802 20.9542 66.9459 18.1362 63.4425 18.1362C60.0152 18.1362 57.1592 20.9542 57.1592 24.4195C57.1592 27.9229 60.0152 30.7409 63.4425 30.7409ZM39.2612 100.01C56.3595 100.01 66.0701 89.3091 66.0701 71.0684V63.4903C66.0701 56.5977 62.757 52.1804 58.8347 52.1804C57.8446 52.1804 57.3115 52.7135 57.3115 53.6655V56.9405C57.3115 58.3875 56.588 59.1111 55.7502 59.1111C54.8363 59.1111 54.1127 58.3875 54.1127 56.9405V54.8079C54.1127 50.6571 51.4471 47.9153 47.8294 47.9153C46.1158 47.9153 45.3161 48.6389 45.3161 50.124V54.6175C45.3161 56.0646 44.5925 56.7881 43.7548 56.7881C42.8027 56.7881 42.1173 56.0646 42.1173 54.6175V50.4667C42.1173 45.897 39.4516 43.5741 35.872 43.5741C34.2346 43.5741 33.3587 44.3738 33.3587 45.7828V54.6175C33.3587 56.0646 32.6352 56.7881 31.7974 56.7881C30.8835 56.7881 30.1599 56.0646 30.1599 54.6175V25.4477C30.1599 22.4774 28.1797 20.4591 25.5903 20.4591C22.8484 20.4591 20.9444 22.4393 20.9444 25.4477V67.7554C20.9444 68.7455 20.3351 69.2405 19.7258 69.2405C19.1546 69.2405 18.6596 68.8978 18.2788 67.9839L12.719 54.846C11.8431 52.7516 10.4722 51.6853 8.45392 51.6853C5.59787 51.6853 3.69383 53.6274 3.69383 56.1027C3.69383 57.0166 3.88423 57.7782 4.11272 58.4637L10.6245 77.5421C16.032 93.3837 26.428 100.01 39.2612 100.01Z" fill="#EEEEEE"/>
<path d="M6.41016 24.6357L25.8208 6.43823L45.2315 24.6357H63.429V6.43823" stroke="#EEEEEE" stroke-width="4"/>
</svg>
