<svg width="100" height="80" viewBox="0 0 100 80" fill="none" xmlns="http://www.w3.org/2000/svg">
<path d="M6.10794 19.3469L10.1229 16.3961L14.0411 19.3469C15.6858 20.5562 17.5723 19.2501 16.9435 17.412L15.3472 12.5747L19.3138 9.62391C20.8133 8.51133 20.1845 6.38291 18.3463 6.38291H13.4123L11.7676 1.207C11.2355 -0.389312 9.01032 -0.389312 8.47822 1.207L6.83353 6.38291H1.85111C-0.0354377 6.38291 -0.664287 8.51133 0.835277 9.62391L4.85024 12.5747L3.3023 17.412C2.67345 19.2501 4.51163 20.5562 6.10794 19.3469ZM34.5997 15.5254H95.3562C97.9683 15.5254 100 13.4938 100 10.8816C100 8.26946 97.9683 6.23779 95.3562 6.23779H34.5997C31.9875 6.23779 29.9558 8.26946 29.9558 10.8816C29.9558 13.4938 31.9875 15.5254 34.5997 15.5254ZM6.10794 49.0479L10.1229 46.0972L14.0411 49.0479C15.6858 50.3056 17.5723 48.9512 16.9435 47.113L15.3472 42.2757L19.3138 39.325C20.8133 38.2124 20.1845 36.084 18.3463 36.084H13.4123L11.7676 30.908C11.2355 29.3117 9.01032 29.3117 8.47822 30.908L6.83353 36.084H1.85111C-0.0354377 36.084 -0.664287 38.2124 0.835277 39.325L4.85024 42.2757L3.3023 47.113C2.67345 48.9512 4.51163 50.2573 6.10794 49.0479ZM34.5997 45.2748H95.3562C97.9683 45.2748 100 43.2432 100 40.631C100 38.0189 97.9683 35.9872 95.3562 35.9872H34.5997C31.9875 35.9872 29.9558 38.0189 29.9558 40.631C29.9558 43.2432 31.9875 45.2748 34.5997 45.2748ZM6.10794 78.8457L10.1229 75.895L14.0411 78.8457C15.6858 80.1034 17.5723 78.749 16.9435 76.9108L15.3472 72.0735L19.3138 69.1227C20.8133 68.0102 20.1845 65.8818 18.3463 65.8818H13.4123L11.7676 60.7058C11.2355 59.1095 9.01032 59.1095 8.47822 60.7058L6.83353 65.8818H1.85111C-0.0354377 65.8818 -0.664287 68.0102 0.835277 69.1227L4.85024 72.0735L3.3023 76.9108C2.67345 78.749 4.51163 80.0551 6.10794 78.8457ZM34.5997 75.0243H95.3562C97.9683 75.0243 100 72.9926 100 70.3804C100 67.7683 97.9683 65.7366 95.3562 65.7366H34.5997C31.9875 65.7366 29.9558 67.7683 29.9558 70.3804C29.9558 72.9926 31.9875 75.0243 34.5997 75.0243Z" fill="#EEEEEE"/>
</svg>
