<svg width="100" height="48" viewBox="0 0 100 48" fill="none" xmlns="http://www.w3.org/2000/svg">
<path d="M50.0396 23.2066C55.8256 23.2066 60.7133 18.0811 60.7133 11.4497C60.7133 4.97674 55.7992 0.00976562 50.0396 0.00976562C44.2801 0.00976562 39.3659 5.056 39.3923 11.5025C39.3923 18.0811 44.2536 23.2066 50.0396 23.2066ZM19.4452 23.8143C24.4914 23.8143 28.745 19.3228 28.745 13.5633C28.745 7.90937 24.465 3.6029 19.4452 3.6029C14.4518 3.6029 10.1453 7.98863 10.1717 13.6161C10.1717 19.3228 14.4254 23.8143 19.4452 23.8143ZM80.5548 23.8143C85.5746 23.8143 89.8283 19.3228 89.8283 13.6161C89.8547 7.98863 85.5482 3.6029 80.5548 3.6029C75.5614 3.6029 71.255 7.90937 71.255 13.5633C71.255 19.3228 75.535 23.8143 80.5548 23.8143ZM4.88771 47.8037H24.7028C21.8758 43.7614 24.9406 35.7826 30.9115 31.0798C28.0053 29.204 24.2008 27.8301 19.4452 27.8301C7.6354 27.8301 0 36.5223 0 43.6822C0 46.2977 1.321 47.8037 4.88771 47.8037ZM95.1123 47.8037C98.679 47.8037 100 46.2977 100 43.6822C100 36.5223 92.3646 27.8301 80.5548 27.8301C75.7992 27.8301 72.0211 29.204 69.1149 31.0798C75.0859 35.7826 78.1506 43.7614 75.3236 47.8037H95.1123ZM33.5535 47.7773H66.4993C70.8587 47.7773 72.3646 46.4563 72.3646 44.0256C72.3646 37.2357 63.7252 27.8829 50.0396 27.8829C36.3276 27.8829 27.7147 37.2357 27.7147 44.0256C27.7147 46.4563 29.2206 47.7773 33.5535 47.7773Z" fill="#EEEEEE"/>
</svg>
