<svg width="517" height="85" viewBox="0 0 517 85" fill="none" xmlns="http://www.w3.org/2000/svg">
<path d="M79.3008 72.2477V12.813H91.7845V72.2477H79.3008Z" fill="#2F2E41"/>
<path d="M139.758 72.2478V56.9442C139.758 54.097 139.104 52.0209 137.796 50.8346C136.488 49.589 134.051 48.9958 130.425 48.9958H117.168V72.3071H105.041V12.813H135.299C138.034 12.813 140.531 13.2282 142.789 14.1179C145.048 15.0077 146.951 16.194 148.556 17.6769C150.161 19.1598 151.409 20.9986 152.301 23.134C153.193 25.2694 153.609 27.5234 153.609 29.9553C153.609 33.1584 152.836 36.0056 151.35 38.4969C149.804 40.9882 147.605 42.7083 144.751 43.7167C147.367 44.5471 149.269 45.8521 150.339 47.5722C151.469 49.2924 152.004 51.9023 152.004 55.3427V72.1884H139.758V72.2478ZM117.168 23.0747V38.9121H132.802C136.131 38.9121 138.509 38.141 139.877 36.6581C141.244 35.1752 141.957 33.2771 141.957 31.023C141.957 28.7097 141.303 26.8116 139.936 25.2694C138.569 23.7865 136.369 23.0154 133.278 23.0154H117.168V23.0747Z" fill="#2F2E41"/>
<path d="M218.346 51.8429C217.692 55.2239 216.622 58.3083 215.196 61.0369C213.769 63.7654 211.926 66.1381 209.786 68.0955C207.586 70.0529 205.09 71.5952 202.177 72.6628C199.264 73.7305 196.113 74.2644 192.665 74.2644C188.801 74.2644 185.116 73.6119 181.787 72.3069C178.398 71.002 175.485 69.0446 173.048 66.3753C170.611 63.7654 168.649 60.503 167.282 56.6475C165.855 52.7919 165.201 48.2839 165.201 43.1827C165.201 38.1409 165.855 33.6328 167.103 29.5993C168.411 25.5658 170.254 22.1848 172.632 19.397C175.01 16.6091 177.923 14.4737 181.371 12.9908C184.818 11.5079 188.682 10.7368 192.903 10.7368C196.589 10.7368 199.977 11.2707 203.009 12.3977C206.041 13.5247 208.656 15.0076 210.797 16.965C212.996 18.9224 214.72 21.1765 216.028 23.7864C217.336 26.3963 218.108 29.2434 218.406 32.2092H205.922C205.09 28.8282 203.485 26.159 201.047 24.2609C198.669 22.3628 195.935 21.4137 192.963 21.4137C187.731 21.4137 183.927 23.2525 181.489 26.9894C179.052 30.7263 177.804 35.8275 177.804 42.3523C177.804 48.9957 178.993 54.1562 181.43 57.7745C183.867 61.3928 187.494 63.2909 192.309 63.2909C195.994 63.2909 198.967 62.2825 201.226 60.2658C203.485 58.249 205.03 55.4019 205.862 51.6056H218.346V51.8429Z" fill="#2F2E41"/>
<path d="M229.879 72.2478V12.813H242.363V61.4522H271.907V72.3071H229.879V72.2478Z" fill="#2F2E41"/>
<path d="M283.797 72.2477V12.813H327.609V23.1933H295.924V35.887H325.112V46.3859H295.924V61.6895H329.036V72.2477H283.797Z" fill="#2F2E41"/>
<path d="M381.883 72.2477L378.138 59.9693H356.142L351.922 72.2477H338.725L360.006 12.813H374.452L395.436 72.2477H381.883ZM367.081 26.1591H366.962L359.353 49.8262H374.511L367.081 26.1591Z" fill="#2F2E41"/>
<path d="M441.924 72.2478V56.9442C441.924 54.097 441.27 52.0209 439.962 50.8346C438.654 49.589 436.217 48.9958 432.591 48.9958H419.334V72.3071H407.207V12.813H437.465C440.2 12.813 442.697 13.2282 444.956 14.1179C447.214 15.0077 449.117 16.194 450.722 17.6769C452.327 19.2191 453.575 20.9986 454.467 23.134C455.359 25.2694 455.775 27.5234 455.775 29.9553C455.775 33.1584 455.002 36.0056 453.516 38.4969C451.97 40.9882 449.771 42.7083 446.917 43.7167C449.533 44.5471 451.435 45.8521 452.505 47.5722C453.635 49.2924 454.17 51.9023 454.17 55.3427V72.1884H441.924V72.2478ZM419.334 23.0747V38.9121H434.969C438.298 38.9121 440.675 38.141 442.043 36.6581C443.41 35.1752 444.123 33.2771 444.123 31.023C444.123 28.7097 443.469 26.8116 442.102 25.2694C440.735 23.7865 438.535 23.0154 435.444 23.0154H419.334V23.0747Z" fill="#2F2E41"/>
<path d="M505.116 72.2477L479.614 32.328V72.2477H468.021V12.813H481.219L504.938 51.0126V12.813H516.589V72.2477H505.116Z" fill="#2F2E41"/>
<path d="M71.6335 71.4759C72.228 72.0691 72.1685 73.0182 71.5741 73.552C63.9649 80.6106 53.7401 85 42.5642 85C39.0569 85 35.609 84.5848 32.3395 83.7544C30.4966 83.2798 28.6538 82.6867 26.8704 82.0342C24.7303 81.2038 22.6497 80.1361 20.688 78.9498C20.2718 78.7125 19.9746 78.238 19.9746 77.7041V41.462C20.2124 35.5304 22.828 30.1919 26.8704 26.277C28.1782 25.0314 29.6644 23.9044 31.2694 22.9553C32.2206 22.4215 33.4095 23.074 33.4095 24.201V68.9847C33.4095 69.6371 33.8256 70.171 34.4795 70.3489C37.0357 71.12 39.7703 71.4759 42.5642 71.4759C50.1139 71.4759 56.9503 68.6288 62.1221 63.8835C62.7165 63.3496 63.5488 63.3496 64.1433 63.9428L71.6335 71.4759Z" fill="#2F2E41"/>
<path d="M71.6329 13.4648L64.1426 20.9386C63.6076 21.4724 62.7159 21.4724 62.1215 20.9979C56.9496 16.3119 50.0538 13.4054 42.5636 13.4054C39.3535 13.4054 36.3217 13.9393 33.4089 14.8883C31.0904 15.6595 28.8909 16.7271 26.8698 18.0321C24.2541 19.693 21.9357 21.769 19.974 24.1417C19.974 24.1417 19.974 24.1417 19.974 24.201C15.8722 29.1835 13.4349 35.5897 13.4349 42.5297V69.9337C13.4349 71.2387 11.8298 71.8911 10.9381 70.8828C4.16125 63.3496 0 53.3845 0 42.4703C0 30.3105 5.17183 19.2777 13.4349 11.5073C15.4561 9.60921 17.6556 7.94836 19.974 6.46546C22.114 5.10119 24.4325 3.91486 26.8698 2.96581C28.9504 2.13538 31.1499 1.4829 33.4089 0.949058C36.3812 0.355897 39.4129 0 42.5636 0C53.7395 0 63.9643 4.33008 71.5734 11.448C72.1679 11.9819 72.1679 12.9309 71.6329 13.4648Z" fill="#00ADB5"/>
</svg>
