<svg width="200" height="33" viewBox="0 0 200 33" fill="none" xmlns="http://www.w3.org/2000/svg">
<path d="M30.7012 27.9709V4.96045H35.5343V27.9709H30.7012Z" fill="#EEEEEE"/>
<path d="M54.1068 27.9709V22.0461C54.1068 20.9438 53.8536 20.14 53.3473 19.6807C52.8409 19.1985 51.8973 18.9688 50.4934 18.9688H45.3611V27.9939H40.666V4.96045H52.3806C53.4393 4.96045 54.4059 5.1212 55.2805 5.46567C56.1551 5.81014 56.8916 6.26943 57.513 6.84354C58.1344 7.41765 58.6177 8.12955 58.9629 8.95628C59.3081 9.783 59.4692 10.6557 59.4692 11.5972C59.4692 12.8373 59.17 13.9396 58.5947 14.9041C57.9963 15.8686 57.1447 16.5346 56.04 16.925C57.0527 17.2465 57.7891 17.7517 58.2034 18.4177C58.6407 19.0836 58.8478 20.0941 58.8478 21.426V27.9479H54.1068V27.9709ZM45.3611 8.93331V15.0648H51.414C52.7028 15.0648 53.6234 14.7663 54.1528 14.1922C54.6821 13.6181 54.9583 12.8832 54.9583 12.0106C54.9583 11.1149 54.7051 10.3801 54.1758 9.783C53.6465 9.20889 52.7949 8.91035 51.5981 8.91035H45.3611V8.93331Z" fill="#EEEEEE"/>
<path d="M84.5324 20.0712C84.2792 21.3801 83.865 22.5743 83.3126 23.6307C82.7603 24.687 82.0468 25.6056 81.2182 26.3634C80.3667 27.1213 79.4001 27.7183 78.2723 28.1317C77.1446 28.5451 75.9248 28.7518 74.5899 28.7518C73.094 28.7518 71.667 28.4991 70.3782 27.9939C69.0664 27.4887 67.9386 26.7309 66.995 25.6975C66.0514 24.687 65.2919 23.424 64.7626 21.9313C64.2102 20.4386 63.957 18.6933 63.957 16.7183C63.957 14.7664 64.2102 13.021 64.6935 11.4595C65.1998 9.89787 65.9133 8.58889 66.8339 7.50956C67.7545 6.43023 68.8822 5.6035 70.2171 5.02939C71.552 4.45528 73.0479 4.15674 74.682 4.15674C76.1089 4.15674 77.4208 4.36342 78.5945 4.79975C79.7683 5.23607 80.781 5.81018 81.6095 6.56801C82.4611 7.32584 83.1285 8.1985 83.6348 9.20894C84.1411 10.2194 84.4403 11.3217 84.5554 12.4699H79.7223C79.4001 11.1609 78.7787 10.1275 77.8351 9.39265C76.9145 8.65779 75.8558 8.29035 74.705 8.29035C72.6797 8.29035 71.2067 9.00225 70.2631 10.449C69.3195 11.8958 68.8362 13.8707 68.8362 16.3968C68.8362 18.9689 69.2965 20.9668 70.2401 22.3676C71.1837 23.7684 72.5876 24.5033 74.4519 24.5033C75.8788 24.5033 77.0295 24.1129 77.9041 23.3321C78.7787 22.5513 79.3771 21.449 79.6993 19.9793H84.5324V20.0712Z" fill="#EEEEEE"/>
<path d="M88.998 27.9709V4.96045H93.8312V23.7914H105.27V27.9939H88.998V27.9709Z" fill="#EEEEEE"/>
<path d="M109.873 27.9709V4.96045H126.835V8.97924H114.568V13.8937H125.868V17.9584H114.568V23.8832H127.387V27.9709H109.873Z" fill="#EEEEEE"/>
<path d="M147.848 27.9709L146.398 23.2173H137.882L136.248 27.9709H131.139L139.378 4.96045H144.971L153.095 27.9709H147.848ZM142.117 10.1275H142.071L139.125 19.2903H144.994L142.117 10.1275Z" fill="#EEEEEE"/>
<path d="M171.093 27.9709V22.0461C171.093 20.9438 170.84 20.14 170.334 19.6807C169.827 19.1985 168.884 18.9688 167.48 18.9688H162.347V27.9939H157.652V4.96045H169.367C170.426 4.96045 171.392 5.1212 172.267 5.46567C173.141 5.81014 173.878 6.26943 174.499 6.84354C175.121 7.44062 175.604 8.12955 175.949 8.95628C176.294 9.783 176.456 10.6557 176.456 11.5972C176.456 12.8373 176.156 13.9396 175.581 14.9041C174.983 15.8686 174.131 16.5346 173.026 16.925C174.039 17.2465 174.775 17.7517 175.19 18.4177C175.627 19.0836 175.834 20.0941 175.834 21.426V27.9479H171.093V27.9709ZM162.347 8.93331V15.0648H168.4C169.689 15.0648 170.61 14.7663 171.139 14.1922C171.668 13.6181 171.945 12.8832 171.945 12.0106C171.945 11.1149 171.691 10.3801 171.162 9.783C170.633 9.20889 169.781 8.91035 168.584 8.91035H162.347V8.93331Z" fill="#EEEEEE"/>
<path d="M195.557 27.9709L185.683 12.5158V27.9709H181.195V4.96045H186.305L195.488 19.7496V4.96045H199.999V27.9709H195.557Z" fill="#EEEEEE"/>
<path d="M27.7324 27.6722C27.9626 27.9019 27.9396 28.2693 27.7094 28.476C24.7635 31.2088 20.8049 32.9081 16.4781 32.9081C15.1202 32.9081 13.7854 32.7474 12.5195 32.4259C11.8061 32.2422 11.0926 32.0125 10.4022 31.7599C9.57362 31.4384 8.7681 31.025 8.0086 30.5658C7.8475 30.4739 7.73242 30.2902 7.73242 30.0835V16.0522C7.82448 13.7557 8.83714 11.6889 10.4022 10.1732C10.9085 9.69099 11.4839 9.25466 12.1053 8.88723C12.4735 8.68055 12.9338 8.93316 12.9338 9.36948V26.7077C12.9338 26.9603 13.0949 27.167 13.3481 27.2359C14.3377 27.5344 15.3964 27.6722 16.4781 27.6722C19.401 27.6722 22.0477 26.5699 24.05 24.7328C24.2802 24.5261 24.6024 24.5261 24.8325 24.7557L27.7324 27.6722Z" fill="#EEEEEE"/>
<path d="M27.733 5.21295L24.8331 8.10648C24.626 8.31316 24.2808 8.31316 24.0506 8.12945C22.0483 6.31525 19.3786 5.18998 16.4787 5.18998C15.2359 5.18998 14.0621 5.39667 12.9344 5.7641C12.0368 6.06264 11.1853 6.476 10.4028 6.98122C9.3901 7.62423 8.49252 8.42798 7.73303 9.34657C7.73303 9.34657 7.73303 9.34657 7.73303 9.36953C6.14499 11.2986 5.20138 13.7787 5.20138 16.4656V27.0752C5.20138 27.5804 4.57998 27.833 4.23475 27.4426C1.61105 24.5261 0 20.6681 0 16.4426C0 11.7349 2.0023 7.46347 5.20138 4.45512C5.98389 3.72025 6.83544 3.07725 7.73303 2.50313C8.56156 1.97495 9.45915 1.51566 10.4028 1.14823C11.2083 0.826723 12.0598 0.574113 12.9344 0.367433C14.0852 0.137787 15.2589 0 16.4787 0C20.8055 0 24.7641 1.67641 27.71 4.43216C27.9402 4.63884 27.9402 5.00627 27.733 5.21295Z" fill="#00ADB5"/>
</svg>
