<svg width="757" height="622" viewBox="0 0 757 622" fill="none" xmlns="http://www.w3.org/2000/svg">
<g clip-path="url(#clip0_24_9455)">
<path d="M554.082 512.063C560.092 514.177 566.545 514.707 572.819 513.601C579.093 512.495 584.977 509.79 589.903 505.747C602.45 495.207 606.383 477.843 609.584 461.764L619.051 414.207L599.231 427.867C584.977 437.69 570.402 447.828 560.533 462.056C550.664 476.284 546.356 495.707 554.286 511.103" fill="#E6E6E6"/>
<path d="M555.775 569.641C553.769 555.016 551.706 540.202 553.114 525.42C554.363 512.292 558.365 499.47 566.512 488.956C570.836 483.386 576.098 478.614 582.061 474.854C583.616 473.872 585.047 476.338 583.499 477.316C573.181 483.842 565.201 493.48 560.709 504.838C555.747 517.469 554.95 531.238 555.805 544.656C556.322 552.771 557.418 560.832 558.522 568.883C558.61 569.247 558.555 569.631 558.371 569.956C558.186 570.282 557.885 570.525 557.528 570.637C557.163 570.735 556.775 570.685 556.447 570.499C556.119 570.313 555.878 570.004 555.775 569.641Z" fill="#F2F2F2"/>
<path d="M575.098 543.761C577.675 547.682 581.218 550.873 585.386 553.025C589.553 555.178 594.204 556.22 598.89 556.052C610.935 555.48 620.976 547.066 630.015 539.078L656.75 515.452L639.056 514.605C626.331 513.995 613.278 513.427 601.158 517.354C589.038 521.282 577.861 530.734 575.645 543.29" fill="#E6E6E6"/>
<path d="M550.105 578.048C559.761 560.948 570.961 541.943 590.973 535.869C596.537 534.186 602.372 533.583 608.162 534.093C609.987 534.25 609.532 537.066 607.71 536.909C598.004 536.102 588.316 538.667 580.278 544.173C572.543 549.442 566.521 556.768 561.424 564.537C558.302 569.295 555.505 574.256 552.708 579.21C551.814 580.793 549.201 579.65 550.105 578.048V578.048Z" fill="#F2F2F2"/>
<path d="M312.126 457.917C300.281 462.084 287.563 463.128 275.198 460.948C262.832 458.768 251.236 453.437 241.527 445.47C216.8 424.697 209.047 390.474 202.739 358.786C196.519 327.543 190.3 296.3 184.08 265.057L223.143 291.978C251.235 311.338 279.96 331.318 299.411 359.361C318.862 387.403 327.352 425.683 311.724 456.026" fill="#E6E6E6"/>
<path d="M308.786 571.395C312.74 542.57 316.805 513.376 314.032 484.243C311.569 458.369 303.682 433.098 287.626 412.377C279.103 401.399 268.733 391.994 256.981 384.583C253.916 382.647 251.096 387.508 254.147 389.435C274.481 402.298 290.209 421.292 299.063 443.678C308.842 468.572 310.412 495.709 308.727 522.154C307.708 538.146 305.548 554.034 303.372 569.901C303.2 570.618 303.307 571.374 303.671 572.016C304.035 572.658 304.629 573.137 305.333 573.357C306.051 573.551 306.816 573.454 307.462 573.086C308.109 572.719 308.584 572.111 308.786 571.395Z" fill="#F2F2F2"/>
<path d="M270.705 520.389C265.625 528.117 258.642 534.405 250.429 538.648C242.216 542.891 233.049 544.945 223.813 544.613C200.075 543.485 180.285 526.903 162.471 511.16L109.779 464.597L144.652 462.927C169.731 461.725 195.457 460.605 219.343 468.346C243.23 476.086 265.259 494.715 269.627 519.461" fill="#E6E6E6"/>
<path d="M319.96 587.965C300.93 554.263 278.857 516.807 239.417 504.836C228.45 501.519 216.951 500.33 205.539 501.335C201.942 501.645 202.84 507.195 206.43 506.885C225.56 505.295 244.653 510.351 260.494 521.201C275.738 531.586 287.607 546.024 297.653 561.335C303.807 570.714 309.318 580.49 314.831 590.253C316.593 593.374 321.743 591.121 319.96 587.965Z" fill="#F2F2F2"/>
<path d="M173.082 131.696L9.23441 97.3387L7.10513 96.8932C6.02075 96.6642 4.89378 96.7462 3.85388 97.1297C2.81397 97.5132 1.90333 98.1827 1.22668 99.0612C0.550036 99.9397 0.134877 100.991 0.0289236 102.096C-0.0770295 103.2 0.130546 104.311 0.627767 105.303L66.3823 236.973C66.8078 237.819 67.4302 238.55 68.197 239.105C68.9638 239.66 69.8525 240.023 70.7885 240.162C71.7274 240.303 72.6864 240.212 73.5825 239.899C74.4787 239.585 75.2851 239.058 75.9321 238.363L120.777 190.47C121.096 190.121 121.484 189.841 121.916 189.649C122.348 189.457 122.815 189.357 123.288 189.355C123.93 189.342 124.564 189.504 125.122 189.824C125.679 190.144 126.139 190.61 126.452 191.171L135.797 208.228C136.394 209.366 137.354 210.271 138.524 210.799C139.694 211.327 141.007 211.449 142.254 211.144L142.3 211.133C143.563 210.858 144.696 210.165 145.517 209.168C146.339 208.17 146.802 206.924 146.831 205.631L148.448 166.12C148.467 165.627 148.588 165.143 148.801 164.698C149.031 164.258 149.344 163.867 149.722 163.546L175.63 142.002C176.481 141.294 177.116 140.36 177.462 139.307C177.808 138.254 177.85 137.125 177.584 136.05C177.318 134.974 176.755 133.995 175.958 133.225C175.162 132.455 174.165 131.925 173.082 131.696V131.696ZM174.132 140.192L148.225 161.737C147.887 162.012 147.582 162.325 147.314 162.669L8.95949 100.856C8.83744 100.8 8.71021 100.757 8.57961 100.725C8.04658 100.591 7.48349 100.648 6.98771 100.885C6.49193 101.123 6.09466 101.526 5.86455 102.026C5.63445 102.525 5.586 103.09 5.7276 103.621C5.86919 104.153 6.19192 104.618 6.63998 104.937L120.588 187.674C120.014 187.977 119.496 188.377 119.058 188.856L74.2137 236.749C73.8246 237.163 73.3412 237.478 72.8046 237.666C72.2679 237.853 71.694 237.909 71.1314 237.827C70.5689 237.745 70.0344 237.528 69.5734 237.196C69.1124 236.863 68.7385 236.423 68.4834 235.915L2.72896 104.245C2.43497 103.65 2.31385 102.984 2.3794 102.323C2.44494 101.663 2.69454 101.034 3.09972 100.509C3.5049 99.9834 4.04935 99.5824 4.67111 99.3516C5.29286 99.1208 5.9669 99.0694 6.61641 99.2033L8.79624 99.6612L172.593 134.007C173.243 134.144 173.842 134.461 174.32 134.923C174.799 135.384 175.138 135.971 175.299 136.617C175.459 137.262 175.435 137.94 175.229 138.572C175.022 139.205 174.642 139.766 174.132 140.192L174.132 140.192Z" fill="#CCCCCC"/>
<path d="M173.082 131.696L9.23441 97.3387L7.10513 96.8932C6.02075 96.6642 4.89378 96.7462 3.85388 97.1297C2.81397 97.5132 1.90333 98.1827 1.22668 99.0612C0.550036 99.9397 0.134877 100.991 0.0289236 102.096C-0.0770295 103.2 0.130546 104.311 0.627767 105.303L66.3823 236.973C66.8078 237.819 67.4302 238.55 68.197 239.105C68.9638 239.66 69.8525 240.023 70.7885 240.162C71.7274 240.303 72.6864 240.212 73.5825 239.899C74.4787 239.585 75.2851 239.058 75.9321 238.363L120.777 190.47C121.096 190.121 121.484 189.841 121.916 189.649C122.348 189.457 122.815 189.357 123.288 189.355C123.93 189.342 124.564 189.504 125.122 189.824C125.679 190.144 126.139 190.61 126.452 191.171L135.797 208.228C136.394 209.366 137.354 210.271 138.524 210.799C139.694 211.327 141.007 211.449 142.254 211.144L142.3 211.133C143.563 210.858 144.696 210.165 145.517 209.168C146.339 208.17 146.802 206.924 146.831 205.631L148.448 166.12C148.467 165.627 148.588 165.143 148.801 164.698C149.031 164.258 149.344 163.867 149.722 163.546L175.63 142.002C176.481 141.294 177.116 140.36 177.462 139.307C177.808 138.254 177.85 137.125 177.584 136.05C177.318 134.974 176.755 133.995 175.958 133.225C175.162 132.455 174.165 131.925 173.082 131.696V131.696ZM174.132 140.192L148.225 161.737C147.887 162.012 147.582 162.325 147.314 162.669C147.072 162.975 146.864 163.306 146.693 163.656C146.514 164.014 146.373 164.391 146.273 164.779L146.275 164.79C146.17 165.194 146.11 165.609 146.097 166.027L144.481 205.538C144.47 206.315 144.195 207.065 143.702 207.665C143.208 208.264 142.526 208.678 141.766 208.838L141.743 208.844C140.995 209.034 140.204 208.967 139.499 208.651C138.795 208.336 138.217 207.791 137.86 207.106L128.512 190.038C128.031 189.16 127.333 188.419 126.485 187.887C125.638 187.355 124.668 187.048 123.669 186.996L123.658 186.999C123.523 186.993 123.389 186.988 123.258 186.993C122.326 186.999 121.409 187.233 120.588 187.674C120.014 187.977 119.496 188.377 119.058 188.856L74.2137 236.749C73.8246 237.163 73.3412 237.478 72.8046 237.666C72.2679 237.853 71.694 237.909 71.1314 237.827C70.5689 237.745 70.0344 237.528 69.5734 237.195C69.1124 236.863 68.7385 236.423 68.4834 235.915L2.72896 104.245C2.43497 103.65 2.31385 102.984 2.3794 102.323C2.44494 101.663 2.69454 101.034 3.09972 100.509C3.5049 99.9834 4.04935 99.5824 4.67111 99.3516C5.29286 99.1208 5.9669 99.0694 6.61641 99.2033L8.79624 99.6612L172.593 134.007C173.243 134.144 173.842 134.461 174.32 134.923C174.799 135.384 175.138 135.971 175.299 136.617C175.459 137.262 175.435 137.94 175.229 138.572C175.022 139.205 174.642 139.766 174.132 140.192L174.132 140.192Z" fill="#3F3D56"/>
<path d="M147.836 162.9L146.876 165.052L146.274 164.79L146.271 164.779L8.02654 103.026L123.656 186.999L123.667 186.997L123.974 187.229L122.597 189.137L120.586 187.674L6.63848 104.937C6.19041 104.618 5.86767 104.153 5.72606 103.621C5.58446 103.09 5.63288 102.525 5.86299 102.026C6.0931 101.526 6.49041 101.123 6.98621 100.885C7.48201 100.648 8.04515 100.591 8.57818 100.725C8.70878 100.757 8.83602 100.8 8.95806 100.856L147.312 162.669L147.836 162.9Z" fill="#3F3D56"/>
<path d="M503.566 327.516L509.546 386.029L509.663 387.23L511.44 404.583L526.036 547.454V547.478L528.872 575.197C527.764 576.686 526.784 578.267 525.941 579.921C523.37 584.999 522.113 590.642 522.286 596.333C522.459 602.024 524.056 607.58 526.93 612.493C534.051 610.703 541.073 608.661 547.998 606.368C562.323 601.652 576.294 595.92 589.805 589.215C588.4 581.477 584.362 574.463 578.376 569.366L563.723 393.144L562.44 377.688L558.262 327.516H503.566Z" fill="#FFB8B8"/>
<path d="M545.474 168.149C575.694 137.902 575.694 88.8614 545.474 58.6143C515.253 28.3673 466.256 28.3673 436.036 58.6144C405.815 88.8615 405.815 137.902 436.036 168.149C466.256 198.396 515.253 198.396 545.474 168.149Z" fill="#FFB8B8"/>
<path d="M346.518 433.056C346.53 433.209 346.542 433.362 346.554 433.503C346.811 436.525 348.027 439.385 350.024 441.665C352.021 443.946 354.694 445.527 357.653 446.179L473.14 471.424C474.141 471.643 475.163 471.754 476.188 471.754C479.286 471.753 482.298 470.735 484.762 468.856C487.226 466.977 489.006 464.341 489.83 461.352C490.077 460.433 490.347 459.491 490.642 458.513V458.501C494.538 445.26 501.494 427.236 511.439 404.583C513.687 399.458 516.092 394.09 518.654 388.479C519.125 387.442 519.607 386.394 520.079 385.345C525.363 373.86 531.26 361.428 537.769 348.049C540.954 341.509 543.359 334.618 544.936 327.516C549.129 308.768 547.474 289.183 540.193 271.406C538.711 267.787 537.001 264.266 535.073 260.863C527.472 247.451 516.702 236.109 503.705 227.83C490.708 219.552 475.881 214.589 460.523 213.377C458.086 213.176 455.662 213.082 453.225 213.082C428.856 213.189 405.465 222.691 387.914 239.611C377.557 249.662 369.693 261.999 364.95 275.636C364.644 276.495 364.362 277.367 364.08 278.239C359.731 292.036 356.241 306.089 353.627 320.318C352.062 328.765 350.791 337.093 349.767 345.21C346.178 374.345 345.091 403.735 346.518 433.056Z" fill="#00ADB5"/>
<path d="M295.662 581.063C365.824 620.978 448.675 632.237 526.93 612.493C534.051 610.703 541.074 608.661 547.999 606.368C541.855 586.318 534.521 566.653 526.036 547.478V547.454C511.888 515.706 498.895 496.281 492.562 487.705C491.521 486.284 490.836 484.635 490.563 482.894C490.291 481.154 490.44 479.374 490.996 477.703L492.963 471.801C493.711 469.568 493.89 467.183 493.485 464.863C493.081 462.543 492.104 460.36 490.644 458.513V458.501C490.514 458.336 490.373 458.171 490.232 458.006C438.785 399.34 349.098 431.348 348.192 431.677L347.744 431.842L347.462 432.231C347.156 432.655 346.85 433.067 346.556 433.503C322.239 467.607 306.079 520.03 295.662 581.063Z" fill="#2F2E41"/>
<path d="M189.913 203.351C190.3 205.052 190.552 206.782 190.667 208.523L326.014 286.672L358.911 267.717L393.982 313.67L339.001 352.891C334.56 356.06 329.211 357.701 323.758 357.568C318.305 357.435 313.043 355.535 308.76 352.154L169.195 241.953C162.897 244.287 156.038 244.646 149.53 242.983C143.023 241.319 137.176 237.712 132.766 232.642C128.357 227.571 125.595 221.277 124.846 214.597C124.098 207.917 125.4 201.167 128.578 195.245C131.756 189.323 136.661 184.51 142.639 181.446C148.617 178.382 155.385 177.212 162.043 178.092C168.702 178.972 174.935 181.86 179.913 186.372C184.892 190.884 188.38 196.806 189.913 203.351Z" fill="#FFB8B8"/>
<path d="M328.088 285.472V285.484C328.579 287.257 329.41 288.918 330.537 290.373L353.629 320.318L364.634 334.608L374.286 347.118C375.53 348.733 377.107 350.06 378.91 351.009C380.712 351.959 382.699 352.508 384.733 352.62C386.767 352.731 388.801 352.403 390.697 351.657C392.592 350.911 394.305 349.765 395.719 348.296L430.769 311.872L445.235 296.828C453.454 290.409 458.794 280.99 460.085 270.637C461.375 260.283 458.511 249.839 452.12 241.596C445.728 233.353 436.332 227.982 425.991 226.663C415.649 225.344 405.207 228.183 396.954 234.558L387.915 239.611L334.844 269.321C332.079 270.873 329.912 273.306 328.688 276.233C327.464 279.159 327.253 282.412 328.088 285.472H328.088Z" fill="#00ADB5"/>
<path d="M481.169 304.25L483.382 374.991L483.393 375.438C483.456 377.477 483.957 379.479 484.863 381.307C485.769 383.134 487.058 384.745 488.642 386.028C490.226 387.312 492.068 388.238 494.043 388.745C496.017 389.251 498.077 389.325 500.083 388.962L509.664 387.23L512.112 386.783H512.124L520.081 385.346L562.44 377.688L570.55 376.228C572.554 375.863 574.456 375.071 576.127 373.905C577.798 372.739 579.198 371.227 580.233 369.471C581.269 367.715 581.914 365.757 582.126 363.73C582.337 361.702 582.111 359.653 581.461 357.721L558.615 290.019C556.705 279.764 550.809 270.685 542.222 264.774C533.634 258.862 523.054 256.6 512.802 258.484C502.551 260.368 493.464 266.243 487.534 274.822C481.604 283.402 479.315 293.984 481.169 304.25Z" fill="#00ADB5"/>
<path d="M478.506 95.5665C458.617 109.191 432.502 123.196 412.188 108.687C398.849 99.1604 394.646 81.5188 400.055 66.0371C409.782 38.1964 436.507 25.9397 462.063 16.5446C495.285 4.33108 531.46 -5.38535 565.756 3.3614C600.053 12.1081 630.363 45.3433 624.172 80.2207C619.193 108.268 592.76 131.606 596.512 159.845C600.289 188.264 632.222 203.223 660.413 208.303C688.605 213.382 720.152 215.014 740.412 235.281C766.257 261.136 759.803 307.348 735.484 334.646C711.164 361.943 674.465 374.317 638.903 382.728C591.785 393.873 540.824 399.731 496.075 381.234C451.325 362.738 416.502 312.948 429.465 266.26C434.94 246.538 447.839 229.871 460.306 213.645C472.772 197.42 485.395 180.452 490.15 160.545C494.113 143.955 491.18 124.694 480.188 112.25C478.189 110.071 476.931 107.315 476.594 104.377C476.258 101.438 476.86 98.4687 478.316 95.8944L478.506 95.5665Z" fill="#2F2E41"/>
</g>
<defs>
<clipPath id="clip0_24_9455">
<rect width="757" height="622" fill="white"/>
</clipPath>
</defs>
</svg>
