<svg width="46" height="55" viewBox="0 0 46 55" fill="white" xmlns="http://www.w3.org/2000/svg">
<path d="M45.7347 45.7463C46.1138 46.1248 46.0759 46.7305 45.6968 47.0712C40.8443 51.576 34.3238 54.3772 27.1968 54.3772C24.9601 54.3772 22.7613 54.1122 20.6763 53.5823C19.5011 53.2794 18.3259 52.9009 17.1886 52.4845C15.8238 51.9545 14.497 51.2731 13.2459 50.516C12.9806 50.3646 12.791 50.0618 12.791 49.7211V26.5917C12.9427 22.8062 14.6107 19.3992 17.1886 16.9008C18.0226 16.1058 18.9703 15.3866 19.9939 14.7809C20.6004 14.4402 21.3586 14.8566 21.3586 15.5759V44.1564C21.3586 44.5728 21.624 44.9135 22.041 45.027C23.6711 45.5192 25.415 45.7463 27.1968 45.7463C32.0113 45.7463 36.371 43.9293 39.6691 40.9009C40.0482 40.5602 40.579 40.5602 40.9581 40.9387L45.7347 45.7463Z" fill="#001C1E"/>
<path d="M45.7483 8.59316L40.9647 13.3629C40.623 13.7036 40.0535 13.7036 39.6738 13.4008C36.3708 10.4102 31.9669 8.5553 27.1832 8.5553C25.1331 8.5553 23.1969 8.896 21.3365 9.50168C19.8559 9.9938 18.4512 10.6752 17.1604 11.508C15.4899 12.568 14.0092 13.8929 12.7564 15.4071C12.7564 15.4071 12.7564 15.4071 12.7564 15.445C10.1368 18.6248 8.58018 22.7132 8.58018 27.1423V44.6314C8.58018 45.4642 7.55511 45.8806 6.98563 45.2371C2.65758 40.4295 0 34.0698 0 27.1044C0 19.3441 3.30299 12.303 8.58018 7.34393C9.871 6.13256 11.2757 5.07261 12.7564 4.12623C14.1231 3.25556 15.6038 2.49845 17.1604 1.89277C18.4891 1.36279 19.8939 0.946383 21.3365 0.605685C23.2348 0.227132 25.1711 0 27.1832 0C34.3207 0 40.8508 2.76344 45.7103 7.30608C46.09 7.64677 46.09 8.25246 45.7483 8.59316Z" fill="#00ADB5"/>
</svg>
